<svg xmlns="http://www.w3.org/2000/svg" viewBox="0 0 29.996 30"><title>独立网关</title><path d="M20,34.319a1.354,1.354,0,0,1-.965-.4L6.077,20.964a1.371,1.371,0,0,1,0-1.929L19.035,6.077a1.372,1.372,0,0,1,1.93,0L33.923,19.035a1.371,1.371,0,0,1,0,1.929L20.965,33.922A1.354,1.354,0,0,1,20,34.319Z" transform="translate(-5.002 -4.998)" fill="#43b89d"/><path d="M20,6.362a.678.678,0,0,1,.482.2L33.441,19.517a.694.694,0,0,1,0,.965L20.482,33.44a.688.688,0,0,1-.964,0L6.559,20.482a.694.694,0,0,1,0-.965L19.518,6.559a.678.678,0,0,1,.482-.2M20,5a2.04,2.04,0,0,0-1.447.6L5.6,18.553a2.051,2.051,0,0,0,0,2.893L18.553,34.4a2.052,2.052,0,0,0,2.894,0L34.4,21.446a2.051,2.051,0,0,0,0-2.893L21.447,5.6A2.04,2.04,0,0,0,20,5Z" transform="translate(-5.002 -4.998)" fill="#666"/><rect x="8.179" y="14.32" width="13.639" height="1.364" fill="#f7f8f8"/></svg>