<svg xmlns="http://www.w3.org/2000/svg" viewBox="0 0 30 30.004"><title>包含网关</title><path d="M20,34.321a1.354,1.354,0,0,1-.965-.4L6.076,20.964a1.371,1.371,0,0,1,0-1.929L19.035,6.075a1.372,1.372,0,0,1,1.93,0l12.959,12.96a1.371,1.371,0,0,1,0,1.929L20.965,33.924A1.354,1.354,0,0,1,20,34.321Z" transform="translate(-5 -4.996)" fill="#45b89d"/><path d="M20,6.36a.678.678,0,0,1,.482.2l12.96,12.96a.693.693,0,0,1,0,.965l-12.96,12.96a.688.688,0,0,1-.964,0L6.558,20.482a.693.693,0,0,1,0-.965l12.96-12.96A.678.678,0,0,1,20,6.36M20,5a2.044,2.044,0,0,0-1.447.6L5.6,18.552a2.053,2.053,0,0,0,0,2.895L18.553,34.4a2.052,2.052,0,0,0,2.894,0L34.4,21.447a2.053,2.053,0,0,0,0-2.895L21.447,5.6A2.044,2.044,0,0,0,20,5Z" transform="translate(-5 -4.996)" fill="#666"/><path d="M20,14.544A5.456,5.456,0,1,1,14.544,20h0A5.462,5.462,0,0,1,20,14.544m0-1.364A6.82,6.82,0,1,0,26.82,20,6.82,6.82,0,0,0,20,13.18Z" transform="translate(-5 -4.996)" fill="#f7f8f8"/></svg>