<svg xmlns="http://www.w3.org/2000/svg" viewBox="0 0 29.996 30"><title>并行网关</title><path d="M20,34.933a1.358,1.358,0,0,1-.965-.4L6.077,21.578a1.371,1.371,0,0,1,0-1.929L19.035,6.69a1.372,1.372,0,0,1,1.93,0L33.923,19.649a1.371,1.371,0,0,1,0,1.929L20.965,34.536A1.358,1.358,0,0,1,20,34.933Z" transform="translate(-5.002 -5.612)" fill="#43b89d"/><path d="M20,6.975a.675.675,0,0,1,.482.2L33.441,20.131a.693.693,0,0,1,0,.964L20.482,34.054a.689.689,0,0,1-.964,0L6.559,21.1a.693.693,0,0,1,0-.964L19.518,7.173a.675.675,0,0,1,.482-.2m0-1.363a2.036,2.036,0,0,0-1.447.6L5.6,19.166a2.052,2.052,0,0,0,0,2.894L18.553,35.015a2.052,2.052,0,0,0,2.894,0L34.4,22.06a2.052,2.052,0,0,0,0-2.894L21.447,6.212A2.036,2.036,0,0,0,20,5.612Z" transform="translate(-5.002 -5.612)" fill="#666"/><rect x="11.945" y="9.887" width="1.364" height="10.229" fill="#f7f8f8"/><rect x="16.687" y="9.887" width="1.364" height="10.229" fill="#f7f8f8"/></svg>