<?xml version="1.0" encoding="utf-8"?>
<!-- Generator: Adobe Illustrator 23.0.1, SVG Export Plug-In . SVG Version: 6.00 Build 0)  -->
<svg version="1.0" id="图层_1" xmlns="http://www.w3.org/2000/svg" xmlns:xlink="http://www.w3.org/1999/xlink" x="0px" y="0px"
	 viewBox="0 0 30 30" enable-background="new 0 0 30 30" xml:space="preserve">
<g>
	<circle fill="#7EBF36" cx="15" cy="15" r="14.32"/>
	<path fill="#666767" d="M15,1.36c7.52,0,13.64,6.12,13.64,13.64S22.52,28.64,15,28.64S1.36,22.52,1.36,15S7.48,1.36,15,1.36 M15,0
		C6.72,0,0,6.72,0,15s6.72,15,15,15s15-6.72,15-15S23.28,0,15,0L15,0z"/>
</g>
<path fill="#FFFFFF" d="M10.77,7.49L6.15,19.17l5.39-5.01l6.93,8.34l5.39-12.79l-6.16,4.45L10.77,7.49z"/>
</svg>
