<?xml version="1.0" encoding="utf-8"?>
<!-- Generator: Adobe Illustrator 23.0.1, SVG Export Plug-In . SVG Version: 6.00 Build 0)  -->
<svg version="1.0" id="图层_1" xmlns="http://www.w3.org/2000/svg" xmlns:xlink="http://www.w3.org/1999/xlink" x="0px" y="0px"
	 viewBox="0 0 30 30" enable-background="new 0 0 30 30" xml:space="preserve">
<g>
	<g>
		<circle fill="#E72123" cx="15" cy="15" r="14.32"/>
		<path fill="#666767" d="M15,1.36c7.52,0,13.64,6.12,13.64,13.64S22.52,28.64,15,28.64S1.36,22.52,1.36,15S7.48,1.36,15,1.36 M15,0
			C6.72,0,0,6.72,0,15s6.72,15,15,15s15-6.72,15-15S23.28,0,15,0L15,0z"/>
	</g>
	<path fill="#FFFFFF" d="M23.52,6.48c-0.44-0.44-1.14-0.44-1.59,0L15,13.41L8.07,6.48c-0.44-0.44-1.14-0.44-1.59,0
		c-0.45,0.44-0.44,1.14,0,1.59L13.41,15l-6.93,6.93c-0.44,0.44-0.44,1.14,0,1.59c0.44,0.44,1.14,0.44,1.59,0L15,16.59l6.93,6.93
		c0.44,0.44,1.14,0.44,1.59,0c0.44-0.44,0.44-1.14,0-1.59L16.59,15l6.93-6.93C23.96,7.63,23.96,6.9,23.52,6.48z"/>
</g>
</svg>
