<?xml version="1.0" encoding="utf-8"?>
<!-- Generator: Adobe Illustrator 23.0.1, SVG Export Plug-In . SVG Version: 6.00 Build 0)  -->
<svg version="1.0" id="图层_1" xmlns="http://www.w3.org/2000/svg" xmlns:xlink="http://www.w3.org/1999/xlink" x="0px" y="0px"
	 viewBox="0 0 30 30" enable-background="new 0 0 30 30" xml:space="preserve">
<g>
	<g>
		<g>
			<circle fill="#EC662C" cx="15" cy="15" r="14.32"/>
			<path fill="#666767" d="M15,1.36c7.52,0,13.64,6.12,13.64,13.64S22.52,28.64,15,28.64S1.36,22.52,1.36,15S7.48,1.36,15,1.36
				 M15,0C6.72,0,0,6.72,0,15c0,8.28,6.72,15,15,15s15-6.72,15-15C30,6.72,23.28,0,15,0L15,0z"/>
		</g>
		<path fill="#FFFFFF" d="M15,5.1c5.46,0,9.9,4.44,9.9,9.9s-4.44,9.9-9.9,9.9S5.1,20.46,5.1,15S9.54,5.1,15,5.1 M15,4
			C8.92,4,4,8.92,4,15s4.92,11,11,11s11-4.92,11-11S21.08,4,15,4L15,4z"/>
	</g>
	<polygon fill="#FFFFFF" points="14.44,14.88 14.44,10.05 5.85,15 14.44,19.95 14.44,15.12 22.83,19.95 22.83,10.05 	"/>
</g>
</svg>
