<?xml version="1.0" encoding="utf-8"?>
<!-- Generator: Adobe Illustrator 23.0.1, SVG Export Plug-In . SVG Version: 6.00 Build 0)  -->
<svg version="1.0" id="图层_1" xmlns="http://www.w3.org/2000/svg" xmlns:xlink="http://www.w3.org/1999/xlink" x="0px" y="0px"
	 viewBox="0 0 30 30" enable-background="new 0 0 30 30" xml:space="preserve">
<g>
	<circle fill="#EC662C" cx="15.01" cy="15" r="14.32"/>
	<path fill="#666767" d="M15.01,1.36c7.52,0,13.64,6.12,13.64,13.64s-6.12,13.64-13.64,13.64S1.38,22.52,1.38,15
		S7.49,1.36,15.01,1.36 M15.01,0c-8.28,0-15,6.72-15,15c0,8.28,6.72,15,15,15s15-6.72,15-15C30.01,6.72,23.3,0,15.01,0L15.01,0z"/>
</g>
<path fill="#FFFFFF" d="M15.01,5.1c5.46,0,9.9,4.44,9.9,9.9s-4.44,9.9-9.9,9.9s-9.9-4.44-9.9-9.9S9.55,5.1,15.01,5.1 M15.01,4
	c-6.08,0-11,4.92-11,11s4.92,11,11,11s11-4.92,11-11S21.09,4,15.01,4L15.01,4z"/>
<path fill="#FFFFFF" d="M19.77,9.36h-9.52c-1.34,0-2.45,1.09-2.45,2.45v6.38c0,1.34,1.09,2.45,2.45,2.45h9.52
	c1.34,0,2.45-1.09,2.45-2.45v-6.38C22.21,10.47,21.12,9.36,19.77,9.36z M19.31,10.59l-4.5,3.67l-4.31-3.67H19.31z M20.99,18.19
	c0,0.67-0.55,1.22-1.22,1.22h-9.52c-0.67,0-1.22-0.55-1.22-1.22v-6.38c0-0.17,0.04-0.34,0.1-0.48l5.63,4.46h0.04h0.04l6.02-4.54
	c0.09,0.17,0.14,0.36,0.14,0.57C20.99,11.82,20.99,18.19,20.99,18.19z"/>
</svg>
