<?xml version="1.0" encoding="utf-8"?>
<!-- Generator: Adobe Illustrator 23.0.1, SVG Export Plug-In . SVG Version: 6.00 Build 0)  -->
<svg version="1.0" id="图层_1" xmlns="http://www.w3.org/2000/svg" xmlns:xlink="http://www.w3.org/1999/xlink" x="0px" y="0px"
	 viewBox="0 0 30 30" enable-background="new 0 0 30 30" xml:space="preserve">
<g>
	<circle fill="#EC662C" cx="15.06" cy="15.06" r="14.32"/>
	<path fill="#666767" d="M15.06,1.43c7.52,0,13.64,6.12,13.64,13.64S22.58,28.7,15.06,28.7S1.42,22.58,1.42,15.06
		S7.54,1.43,15.06,1.43 M15.06,0.06c-8.28,0-15,6.72-15,15c0,8.28,6.72,15,15,15s15-6.72,15-15C30.06,6.78,23.34,0.06,15.06,0.06
		L15.06,0.06z"/>
</g>
<path fill="#FFFFFF" d="M15.06,5.16c5.46,0,9.9,4.44,9.9,9.9s-4.44,9.9-9.9,9.9s-9.9-4.44-9.9-9.9S9.6,5.16,15.06,5.16 M15.06,4.06
	c-6.08,0-11,4.92-11,11s4.92,11,11,11s11-4.92,11-11S21.13,4.06,15.06,4.06L15.06,4.06z"/>
<path fill="#FFFFFF" d="M20.65,16.56h-6.92V9.67c0-0.58-0.47-1.04-1.03-1.04s-1.03,0.47-1.03,1.04v7.78c0,0.03,0,0.05,0,0.08
	c0,0.03,0,0.05,0,0.08c0,0.58,0.47,1.04,1.03,1.04h7.95c0.57,0,1.03-0.47,1.03-1.04S21.23,16.56,20.65,16.56z"/>
</svg>
