<?xml version="1.0" encoding="utf-8"?>
<!-- Generator: Adobe Illustrator 23.0.1, SVG Export Plug-In . SVG Version: 6.00 Build 0)  -->
<svg version="1.0" id="图层_1" xmlns="http://www.w3.org/2000/svg" xmlns:xlink="http://www.w3.org/1999/xlink" x="0px" y="0px"
	 viewBox="0 0 30 30" enable-background="new 0 0 30 30" xml:space="preserve">
<g>
	<g>
		<circle fill="#EC662C" cx="15" cy="15" r="14.32"/>
		<path fill="#666767" d="M15,1.36c7.52,0,13.64,6.12,13.64,13.64S22.52,28.64,15,28.64S1.36,22.52,1.36,15S7.48,1.36,15,1.36 M15,0
			C6.72,0,0,6.72,0,15s6.72,15,15,15s15-6.72,15-15S23.28,0,15,0L15,0z"/>
	</g>
	<path fill="#FFFFFF" d="M22.51,14.99h-7.65V7.37c0-0.64-0.52-1.15-1.14-1.15s-1.14,0.52-1.14,1.15v8.6c0,0.03,0,0.06,0,0.09
		s0,0.06,0,0.09c0,0.64,0.52,1.15,1.14,1.15h8.79c0.63,0,1.14-0.52,1.14-1.15C23.65,15.52,23.15,14.99,22.51,14.99z"/>
</g>
</svg>
