<?xml version="1.0" encoding="utf-8"?>
<!-- Generator: Adobe Illustrator 23.0.1, SVG Export Plug-In . SVG Version: 6.00 Build 0)  -->
<svg version="1.0" id="图层_1" xmlns="http://www.w3.org/2000/svg" xmlns:xlink="http://www.w3.org/1999/xlink" x="0px" y="0px"
	 viewBox="0 0 30 30" enable-background="new 0 0 30 30" xml:space="preserve">
<g>
	<g>
		<circle fill="#EC662C" cx="15.01" cy="15" r="14.32"/>
		<path fill="#666767" d="M15.01,1.36c7.52,0,13.64,6.12,13.64,13.64s-6.12,13.64-13.64,13.64S1.38,22.52,1.38,15
			S7.49,1.36,15.01,1.36 M15.01,0c-8.28,0-15,6.72-15,15c0,8.28,6.72,15,15,15s15-6.72,15-15C30.01,6.72,23.3,0,15.01,0L15.01,0z"/>
	</g>
	<path fill="#FFFFFF" d="M15.01,5.1c5.46,0,9.9,4.44,9.9,9.9s-4.44,9.9-9.9,9.9s-9.9-4.44-9.9-9.9S9.55,5.1,15.01,5.1 M15.01,4
		c-6.08,0-11,4.92-11,11s4.92,11,11,11s11-4.92,11-11S21.09,4,15.01,4L15.01,4z"/>
</g>
</svg>
