<?xml version="1.0" encoding="utf-8"?>
<!-- Generator: Adobe Illustrator 23.0.1, SVG Export Plug-In . SVG Version: 6.00 Build 0)  -->
<svg version="1.0" id="图层_1" xmlns="http://www.w3.org/2000/svg" xmlns:xlink="http://www.w3.org/1999/xlink" x="0px" y="0px"
	 viewBox="0 0 30 30" enable-background="new 0 0 30 30" xml:space="preserve">
<g>
	<path fill="#DDDDDD" d="M26,30H4c-2.2,0-4-1.8-4-4V4c0-2.2,1.8-4,4-4h22c2.2,0,4,1.8,4,4v22C30,28.2,28.2,30,26,30z"/>
	<g>
		<path fill="#333333" d="M3.38,25.85c-0.23,0.23-0.23,0.65,0,0.88c0.23,0.23,0.65,0.23,0.88,0l1.29-1.29l-0.88-0.88L3.38,25.85z"/>
		
			<rect x="8.16" y="20.43" transform="matrix(0.7073 -0.7069 0.7069 0.7073 -12.2599 12.4893)" fill="#333333" width="1.58" height="1.23"/>
		
			<rect x="5.92" y="22.69" transform="matrix(0.7069 -0.7073 0.7073 0.7069 -14.5225 11.5779)" fill="#333333" width="1.58" height="1.23"/>
		<path fill="#333333" d="M15.76,13.41l-1.17,1.17l0.88,0.88l1.17-1.17c0.23-0.29,0.23-0.65,0-0.88
			C16.4,13.17,15.99,13.17,15.76,13.41z"/>
		
			<rect x="12.61" y="16.04" transform="matrix(0.7073 -0.7069 0.7069 0.7073 -7.8508 14.3466)" fill="#333333" width="1.59" height="1.23"/>
		
			<rect x="10.36" y="18.22" transform="matrix(0.7071 -0.7071 0.7071 0.7071 -10.0486 13.4041)" fill="#333333" width="1.58" height="1.23"/>
		<polygon fill="#333333" points="26.8,18.69 19.83,18.69 19.83,4.46 26.8,4.46 26.8,3.1 18.46,3.1 18.46,20.05 26.8,20.05 		"/>
	</g>
</g>
</svg>
