<?xml version="1.0" encoding="utf-8"?>
<!-- Generator: Adobe Illustrator 23.0.1, SVG Export Plug-In . SVG Version: 6.00 Build 0)  -->
<svg version="1.0" id="图层_1" xmlns="http://www.w3.org/2000/svg" xmlns:xlink="http://www.w3.org/1999/xlink" x="0px" y="0px"
	 viewBox="0 0 30 30" enable-background="new 0 0 30 30" xml:space="preserve">
<g>
	<path fill="#DDDDDD" d="M26,30H4c-2.2,0-4-1.8-4-4V4c0-2.2,1.8-4,4-4h22c2.2,0,4,1.8,4,4v22C30,28.2,28.2,30,26,30z"/>
	<g>
		<path fill="#333333" d="M3.3,25.82c-0.24,0.24-0.24,0.67,0,0.91c0.24,0.24,0.67,0.24,0.91,0l1.34-1.34l-0.91-0.91L3.3,25.82z"/>
		
			<rect x="7.79" y="20.77" transform="matrix(0.7073 -0.7069 0.7069 0.7073 -12.6094 12.3527)" fill="#333333" width="1.64" height="1.27"/>
		
			<rect x="5.66" y="22.91" transform="matrix(0.7069 -0.7073 0.7073 0.7069 -14.7596 11.4831)" fill="#333333" width="1.64" height="1.27"/>
		<path fill="#333333" d="M25.79,3.27l-1.21,1.21l0.91,0.91l1.21-1.21c0.24-0.3,0.24-0.67,0-0.91C26.45,3.03,26.03,3.03,25.79,3.27z
			"/>
		
			<rect x="12.07" y="16.48" transform="matrix(0.7073 -0.7069 0.7069 0.7073 -8.325 14.1212)" fill="#333333" width="1.64" height="1.27"/>
		
			<rect x="9.93" y="18.62" transform="matrix(0.7071 -0.7071 0.7071 0.7071 -10.4693 13.2441)" fill="#333333" width="1.64" height="1.28"/>
		
			<rect x="14.21" y="14.33" transform="matrix(0.7073 -0.7069 0.7069 0.7073 -6.1829 15.0054)" fill="#333333" width="1.64" height="1.27"/>
		
			<rect x="16.35" y="12.19" transform="matrix(0.7073 -0.7069 0.7069 0.7073 -4.0407 15.8896)" fill="#333333" width="1.64" height="1.27"/>
		
			<rect x="18.49" y="10.04" transform="matrix(0.7073 -0.7069 0.7069 0.7073 -1.8985 16.7738)" fill="#333333" width="1.64" height="1.27"/>
		
			<rect x="20.63" y="7.9" transform="matrix(0.7073 -0.7069 0.7069 0.7073 0.2437 17.6579)" fill="#333333" width="1.64" height="1.27"/>
		
			<rect x="22.77" y="5.75" transform="matrix(0.7073 -0.7069 0.7069 0.7073 2.3858 18.5421)" fill="#333333" width="1.64" height="1.27"/>
	</g>
</g>
</svg>
