<?xml version="1.0" encoding="utf-8"?>
<!-- Generator: Adobe Illustrator 23.0.1, SVG Export Plug-In . SVG Version: 6.00 Build 0)  -->
<svg version="1.0" id="图层_1" xmlns="http://www.w3.org/2000/svg" xmlns:xlink="http://www.w3.org/1999/xlink" x="0px" y="0px"
	 viewBox="0 0 30 30" enable-background="new 0 0 30 30" xml:space="preserve">
<g>
	<g>
		<path fill="#FFFFFF" d="M2.23,26.6c-0.75,0-1.36-0.61-1.36-1.36V8.88c0-0.75,0.61-1.36,1.36-1.36h25.91
			c0.75,0,1.36,0.61,1.36,1.36v16.36c0,0.75-0.61,1.36-1.36,1.36H2.23z"/>
		<path fill="#666767" d="M28.14,8.19c0.37,0,0.68,0.31,0.68,0.68v16.36c0,0.37-0.31,0.68-0.68,0.68H2.23
			c-0.37,0-0.68-0.31-0.68-0.68V8.88c0-0.37,0.31-0.68,0.68-0.68H28.14 M28.14,6.83H2.23c-1.12,0-2.05,0.92-2.05,2.05v16.36
			c0,1.12,0.92,2.05,2.05,2.05h25.91c1.12,0,2.05-0.92,2.05-2.05V8.88C30.19,7.75,29.27,6.83,28.14,6.83L28.14,6.83z"/>
	</g>
	<path fill="#387EC2" d="M11.16,11.09h5.88c0.68,0,0.89,0.21,0.89,0.89v10.14c0,0.68-0.21,0.89-0.89,0.89H5.19
		c-0.64,0-0.89-0.26-0.89-0.85V11.94c0-0.6,0.26-0.85,0.85-0.85H11.16z M8.56,19.83H5.15v2.3h3.41V19.83z M12.82,22.17v-2.3H9.45
		v2.3H12.82z M13.67,22.13h3.41v-2.3h-3.41V22.13z M5.19,16.76v2.3h3.37v-2.3C8.56,16.76,5.19,16.76,5.19,16.76z M13.67,19.06h3.24
		c0.04,0,0.17-0.09,0.17-0.17v-2.13h-3.41V19.06z M9.41,19.06h3.41V16.8H9.41V19.06z M8.56,15.99v-2.3H5.15v2.09
		c0,0.09,0.13,0.21,0.21,0.21C5.36,15.99,8.56,15.99,8.56,15.99z M9.41,15.95h3.41v-2.26H9.41V15.95z M17.04,15.95v-2.3h-3.37v2.3
		C13.67,15.95,17.04,15.95,17.04,15.95z"/>
</g>
</svg>
