<?xml version="1.0" encoding="utf-8"?>
<!-- Generator: Adobe Illustrator 23.0.1, SVG Export Plug-In . SVG Version: 6.00 Build 0)  -->
<svg version="1.0" id="图层_1" xmlns="http://www.w3.org/2000/svg" xmlns:xlink="http://www.w3.org/1999/xlink" x="0px" y="0px"
	 viewBox="0 0 30 30" enable-background="new 0 0 30 30" xml:space="preserve">
<g>
	<g>
		<path fill="#FFFFFF" d="M2.05,24.55c-0.75,0-1.36-0.61-1.36-1.36V6.82c0-0.75,0.61-1.36,1.36-1.36h25.91
			c0.75,0,1.36,0.61,1.36,1.36v16.36c0,0.75-0.61,1.36-1.36,1.36H2.05z"/>
		<path fill="#666767" d="M27.95,6.14c0.37,0,0.68,0.31,0.68,0.68v16.36c0,0.37-0.31,0.68-0.68,0.68H2.05
			c-0.37,0-0.68-0.31-0.68-0.68V6.82c0-0.37,0.31-0.68,0.68-0.68H27.95 M27.95,4.77H2.05C0.92,4.77,0,5.69,0,6.82v16.36
			c0,1.13,0.92,2.05,2.05,2.05h25.91c1.12,0,2.05-0.92,2.05-2.05V6.82C30,5.69,29.08,4.77,27.95,4.77L27.95,4.77z"/>
	</g>
	<path fill="#387EC2" d="M17.45,14.61c-0.05-0.45,0.03-0.41,0.18-0.86l0.08-0.26c0.03-0.1,0.05-0.2,0.08-0.33
		c0.01-0.06,0.02-0.12,0.02-0.17c0.12,0.1,0.28,0.23,0.4,0.36c0.22,0.24,0.5,0.03,0.37-0.01c-0.13-0.04-0.36-0.3-0.57-0.7
		c-0.06-0.11-0.16-0.2-0.26-0.28c-0.1-0.33-0.28-0.6-0.43-0.7c-0.26-0.18-0.88-1.27-2-1.89c-1.12-0.62-1.17,0.4-1.93,0.33
		c-0.77-0.08-0.84-0.66-1.69-0.69c-0.85-0.03-1.55,1.4-2.24,1.86c-0.5,0.33-0.66,0.46-1.1,0.23c-0.64-0.33-0.63-1.28-0.63-1.28
		S7.68,9.7,7.5,9.52L7.31,9.34c0,0,0.04-0.33-0.04-0.3c-0.08,0.03-0.37,0.06-0.43,0.1C6.74,9.21,6.38,9.14,6.04,9.36
		C5.81,9.5,5.64,9.51,5.57,9.53c-0.07,0.02-0.06-0.11-0.18-0.1c-0.1,0.01-0.1,0.14-0.1,0.14S4.73,9.65,4.49,9.79
		c-0.23,0.13-0.32,0.34-0.32,0.49c0,0.09-0.17,0.42-0.05,0.56c0.13,0.14,0.2,0.07,0.2,0.07s-0.09,0.16,0.05,0.23
		c0.15,0.07,0.28-0.12,0.35-0.14c0.08-0.02,0.39,0.06,0.6,0.13c0.07,0.02,0.17,0.03,0.27,0.04l0.3,0c0.08,0,0.14-0.01,0.14-0.01
		s0.12,0.11,0.22,0.15c0.14,0.08,0.01,0.7,0.03,1.23c0.03,0.63,0.13,2.07,1.53,2.48c1.4,0.42,2.08-1.07,2.18-0.94
		c0.28,0.39,0.63,0.52,0.61,0.65c-0.04,0.29-0.64,0.91-1.12,1.75c-0.33,0.58-0.07,0.92,0.4,1.82c0.39,0.75,0.46,1.04,0.38,1.5
		c-0.08,0.47,0.31,0.24,0.51,0.06c0.2-0.18,0.35-0.49,0.13-0.66c-0.19-0.14-0.66-1.5-0.85-2.07c-0.1-0.29,0.9-1.33,0.92-1.29
		c0.09,0.15,0.27,0.56,0.4,1.19c0.13,0.63,0.4,1.55,0.4,1.91c0,0.36-0.41,1.27-0.74,1.56c-0.34,0.29,0.67,0.3,1.01,0.23
		c0.34-0.06,0.08-0.36,0.06-0.6c-0.02-0.25,0.05-0.87,0.15-1.72c0.11-0.85-0.22-1.88-0.34-2.24c-0.12-0.36,0.03-0.83,0.23-1.18
		c0.2-0.36,0.32-0.13,1.48-0.3c1.17-0.17,1.78-0.52,2-0.58c0.22-0.07-0.12,0.62-0.15,1.34c-0.02,0.64,0.8,1.45,0.74,2.06
		c-0.06,0.6-1.48,2.54-1.64,2.66c-0.45,0.33-0.52,0.27-0.68,0.5c-0.14,0.22,0.83,0.27,1.11,0.12c0.3-0.15,0-0.18,0.14-0.49
		c0.14-0.31,1.87-2.23,1.9-2.55c0.04-0.44-0.28-1.36-0.26-1.49c0.21,0.2,0.46,0.43,0.52,0.5c0.51,0.59,0.75,0.57,0.72,0.81
		c-0.04,0.45-0.43,2.64-0.54,2.75c-0.19,0.18-0.34,0.26-0.55,0.5c-0.2,0.23,0.41,0.15,0.63,0.16c0.34,0.03,0.31-0.13,0.31-0.28
		c0-0.15,0.12-0.77,0.41-1.72c0.3-0.98,0.45-1.25,0.45-1.69C18.73,16.54,17.55,15.53,17.45,14.61"/>
</g>
</svg>
