<?xml version="1.0" encoding="utf-8"?>
<!-- Generator: Adobe Illustrator 23.0.1, SVG Export Plug-In . SVG Version: 6.00 Build 0)  -->
<svg version="1.0" id="图层_1" xmlns="http://www.w3.org/2000/svg" xmlns:xlink="http://www.w3.org/1999/xlink" x="0px" y="0px"
	 viewBox="0 0 30 30" enable-background="new 0 0 30 30" xml:space="preserve">
<g>
	<g>
		<path fill="#FFFFFF" d="M2.23,25.69c-0.75,0-1.36-0.61-1.36-1.36V7.97c0-0.75,0.61-1.36,1.36-1.36h25.91
			c0.75,0,1.36,0.61,1.36,1.36v16.36c0,0.75-0.61,1.36-1.36,1.36H2.23z"/>
		<path fill="#666767" d="M28.14,7.29c0.37,0,0.68,0.31,0.68,0.68v16.36c0,0.37-0.31,0.68-0.68,0.68H2.23
			c-0.37,0-0.68-0.31-0.68-0.68V7.97c0-0.37,0.31-0.68,0.68-0.68H28.14 M28.14,5.92H2.23c-1.12,0-2.05,0.92-2.05,2.05v16.36
			c0,1.12,0.92,2.05,2.05,2.05h25.91c1.12,0,2.05-0.92,2.05-2.05V7.97C30.19,6.84,29.27,5.92,28.14,5.92L28.14,5.92z"/>
	</g>
	<path fill="#387EC2" d="M17.52,12.66H9.17v2.39h8.35V12.66z M5.59,12.66v2.39h2.39v-2.39H5.59z M9.17,21.01h8.35v-4.77H9.17V21.01z
		 M7.97,21.01v-4.77H5.59v4.77H7.97z M4.4,10.27h14.32V22.2H4.4V10.27z"/>
</g>
</svg>
