<?xml version="1.0" encoding="utf-8"?>
<!-- Generator: Adobe Illustrator 23.0.1, SVG Export Plug-In . SVG Version: 6.00 Build 0)  -->
<svg version="1.0" id="图层_1" xmlns="http://www.w3.org/2000/svg" xmlns:xlink="http://www.w3.org/1999/xlink" x="0px" y="0px"
	 viewBox="0 0 30 30" enable-background="new 0 0 30 30" xml:space="preserve">
<g>
	<g>
		<path fill="#FFFFFF" d="M2.05,24.68c-0.75,0-1.36-0.61-1.36-1.36V6.95c0-0.75,0.61-1.36,1.36-1.36h25.91
			c0.75,0,1.36,0.61,1.36,1.36v16.36c0,0.75-0.61,1.36-1.36,1.36H2.05z"/>
		<path fill="#666767" d="M27.95,6.27c0.37,0,0.68,0.31,0.68,0.68v16.36c0,0.37-0.31,0.68-0.68,0.68H2.05
			c-0.37,0-0.68-0.31-0.68-0.68V6.95c0-0.37,0.31-0.68,0.68-0.68H27.95 M27.95,4.91H2.05C0.92,4.91,0,5.83,0,6.95v16.36
			c0,1.12,0.92,2.05,2.05,2.05h25.91c1.12,0,2.05-0.92,2.05-2.05V6.95C30,5.83,29.08,4.91,27.95,4.91L27.95,4.91z"/>
	</g>
	<path fill="#387EC2" d="M19.26,10.47c0,0.45-0.14,0.87-0.42,1.28s-0.62,0.75-1.03,1.04c-2.12,1.48-3.45,2.39-3.97,2.76
		c-0.06,0.04-0.18,0.13-0.36,0.26c-0.18,0.13-0.34,0.24-0.46,0.32c-0.12,0.08-0.27,0.17-0.44,0.28c-0.17,0.1-0.34,0.18-0.49,0.23
		c-0.15,0.05-0.29,0.08-0.42,0.08h-0.02c-0.13,0-0.27-0.02-0.42-0.08c-0.15-0.05-0.32-0.13-0.49-0.23c-0.17-0.1-0.32-0.19-0.44-0.28
		c-0.12-0.08-0.28-0.19-0.46-0.32c-0.18-0.13-0.3-0.22-0.36-0.26C8.97,15.19,8.23,14.67,7.26,14s-1.55-1.07-1.74-1.21
		c-0.35-0.24-0.68-0.56-0.99-0.98c-0.31-0.41-0.47-0.8-0.47-1.15c0-0.44,0.12-0.81,0.35-1.1s0.57-0.44,1-0.44H17.9
		c0.37,0,0.69,0.13,0.95,0.4C19.12,9.78,19.26,10.1,19.26,10.47z M19.26,12.97v6.73c0,0.37-0.13,0.69-0.4,0.96
		c-0.27,0.27-0.58,0.4-0.96,0.4H5.42c-0.37,0-0.69-0.13-0.96-0.4c-0.27-0.26-0.4-0.58-0.4-0.96v-6.73c0.25,0.28,0.54,0.52,0.86,0.74
		c2.04,1.39,3.45,2.37,4.21,2.92c0.32,0.24,0.58,0.42,0.78,0.55c0.2,0.13,0.47,0.27,0.8,0.41c0.33,0.14,0.64,0.21,0.93,0.21h0.02
		c0.29,0,0.6-0.07,0.93-0.21c0.33-0.14,0.6-0.28,0.8-0.41c0.2-0.13,0.46-0.32,0.78-0.55c0.96-0.69,2.37-1.67,4.22-2.92
		C18.73,13.48,19.01,13.24,19.26,12.97z"/>
</g>
</svg>
