<?xml version="1.0" encoding="utf-8"?>
<!-- Generator: Adobe Illustrator 23.0.1, SVG Export Plug-In . SVG Version: 6.00 Build 0)  -->
<svg version="1.0" id="图层_1" xmlns="http://www.w3.org/2000/svg" xmlns:xlink="http://www.w3.org/1999/xlink" x="0px" y="0px"
	 viewBox="0 0 30 30" enable-background="new 0 0 30 30" xml:space="preserve">
<g>
	<g>
		<g>
			<path fill="#FFFFFF" d="M2.1,24.46c-0.75,0-1.36-0.61-1.36-1.36V6.74c0-0.75,0.61-1.36,1.36-1.36h25.91
				c0.75,0,1.36,0.61,1.36,1.36V23.1c0,0.75-0.61,1.36-1.36,1.36H2.1z"/>
			<path fill="#666767" d="M28.01,6.05c0.37,0,0.68,0.31,0.68,0.68V23.1c0,0.37-0.31,0.68-0.68,0.68H2.1
				c-0.37,0-0.68-0.31-0.68-0.68V6.74c0-0.37,0.31-0.68,0.68-0.68H28.01 M28.01,4.69H2.1c-1.12,0-2.05,0.92-2.05,2.05V23.1
				c0,1.12,0.92,2.05,2.05,2.05h25.91c1.12,0,2.05-0.92,2.05-2.05V6.74C30.06,5.61,29.14,4.69,28.01,4.69L28.01,4.69z"/>
		</g>
	</g>
	<g>
		<g>
			<path fill="#387EC2" d="M19.41,20.91H4.46V8.98h14.95V20.91z M5.93,19.43h12v-8.98h-12V19.43z"/>
		</g>
		<path fill="#387EC2" d="M8.82,17.47l-1.04-1.04l1.63-1.63l-1.63-1.63l1.04-1.05l2.67,2.68L8.82,17.47z M11.84,16.29h4.25v1.48
			h-4.25V16.29z"/>
	</g>
</g>
</svg>
