<?xml version="1.0" encoding="utf-8"?>
<!-- Generator: Adobe Illustrator 23.0.1, SVG Export Plug-In . SVG Version: 6.00 Build 0)  -->
<svg version="1.0" id="图层_1" xmlns="http://www.w3.org/2000/svg" xmlns:xlink="http://www.w3.org/1999/xlink" x="0px" y="0px"
	 viewBox="0 0 30 30" enable-background="new 0 0 30 30" xml:space="preserve">
<g>
	<g>
		<circle fill="#7EBF36" cx="15" cy="15" r="14.32"/>
		<path fill="#666767" d="M15,1.36c7.52,0,13.64,6.12,13.64,13.64S22.52,28.64,15,28.64S1.36,22.52,1.36,15S7.48,1.36,15,1.36 M15,0
			C6.72,0,0,6.72,0,15s6.72,15,15,15s15-6.72,15-15S23.28,0,15,0L15,0z"/>
	</g>
	<path fill="#FFFFFF" d="M21.47,8.09H8.53c-1.83,0-3.32,1.35-3.32,3v7.83c0,1.66,1.49,3,3.32,3h12.93c1.83,0,3.32-1.35,3.32-3v-7.83
		C24.79,9.44,23.3,8.09,21.47,8.09z M20.84,9.57l-6.11,4.23L8.87,9.57H20.84z M23.13,18.9c0,0.83-0.74,1.5-1.66,1.5H8.53
		c-0.92,0-1.66-0.67-1.66-1.5v-7.83c0-0.22,0.05-0.41,0.13-0.59l7.64,5.19h0.05h0.05l8.17-5.3c0.12,0.2,0.2,0.44,0.2,0.7v7.83H23.13
		z"/>
</g>
</svg>
