<?xml version="1.0" encoding="utf-8"?>
<!-- Generator: Adobe Illustrator 23.0.1, SVG Export Plug-In . SVG Version: 6.00 Build 0)  -->
<svg version="1.0" id="图层_1" xmlns="http://www.w3.org/2000/svg" xmlns:xlink="http://www.w3.org/1999/xlink" x="0px" y="0px"
	 viewBox="0 0 30 30" enable-background="new 0 0 30 30" xml:space="preserve">
<g>
	<g>
		<path fill="#FFFFFF" d="M2.05,24.55c-0.75,0-1.36-0.61-1.36-1.36V6.82c0-0.75,0.61-1.36,1.36-1.36h25.91
			c0.75,0,1.36,0.61,1.36,1.36v16.36c0,0.75-0.61,1.36-1.36,1.36H2.05z"/>
		<path fill="#666767" d="M27.95,6.14c0.37,0,0.68,0.31,0.68,0.68v16.36c0,0.37-0.31,0.68-0.68,0.68H2.05
			c-0.37,0-0.68-0.31-0.68-0.68V6.82c0-0.37,0.31-0.68,0.68-0.68H27.95 M27.95,4.77H2.05C0.92,4.77,0,5.69,0,6.82v16.36
			c0,1.12,0.92,2.05,2.05,2.05h25.91c1.12,0,2.05-0.92,2.05-2.05V6.82C30,5.69,29.08,4.77,27.95,4.77L27.95,4.77z"/>
	</g>
	<path fill="#387EC2" d="M11.29,19.75c0.66,0,1.19-0.53,1.19-1.19v-8.1H7.79c-0.33,0-0.6,0.27-0.6,0.6v6.31H5.92V10.8
		c0-0.99,0.8-1.79,1.79-1.79h6.56c0.99,0,1.79,0.8,1.79,1.79v0.6h-2.22v7.76c0,0.99-0.8,1.79-1.79,1.79H5.92
		c-0.99,0-1.79-0.8-1.79-1.79v-0.6h5.97C10.09,19.21,10.63,19.75,11.29,19.75z"/>
</g>
</svg>
