<?xml version="1.0" encoding="utf-8"?>
<!-- Generator: Adobe Illustrator 23.0.1, SVG Export Plug-In . SVG Version: 6.00 Build 0)  -->
<svg version="1.0" id="图层_1" xmlns="http://www.w3.org/2000/svg" xmlns:xlink="http://www.w3.org/1999/xlink" x="0px" y="0px"
	 viewBox="0 0 30 30" enable-background="new 0 0 30 30" xml:space="preserve">
<g>
	<g>
		<g>
			<path fill="#FFFFFF" d="M2.05,24.55c-0.75,0-1.36-0.61-1.36-1.36V6.82c0-0.75,0.61-1.36,1.36-1.36h25.91
				c0.75,0,1.36,0.61,1.36,1.36v16.36c0,0.75-0.61,1.36-1.36,1.36H2.05z"/>
			<path fill="#666767" d="M27.95,6.14c0.37,0,0.68,0.31,0.68,0.68v16.36c0,0.37-0.31,0.68-0.68,0.68H2.05
				c-0.37,0-0.68-0.31-0.68-0.68V6.82c0-0.37,0.31-0.68,0.68-0.68H27.95 M27.95,4.77H2.05C0.92,4.77,0,5.69,0,6.82v16.36
				c0,1.12,0.92,2.05,2.05,2.05h25.91c1.12,0,2.05-0.92,2.05-2.05V6.82C30,5.69,29.08,4.77,27.95,4.77L27.95,4.77z"/>
		</g>
	</g>
	<path fill="#387EC2" d="M14.89,10.18c-0.4-0.45-0.89-0.8-1.39-1.14l-0.2,0.3l-0.4,0.5l-0.6,0.8l-0.6,0.85l-1.53,2.21h0.07
		l-1.53-2.21l-0.6-0.85l-0.6-0.8l-0.4-0.5l-0.2-0.3c-1.89,1.14-3.18,3.18-3.18,5.57c0,2.88,1.89,5.32,4.47,6.12
		c0.3,0.1,0.65,0.2,0.99,0.25v-3.03c-0.35-0.1-0.7-0.25-0.99-0.5c-0.89-0.65-1.49-1.64-1.49-2.83c0-0.35,0.05-0.65,0.15-0.99
		l2.59,3.48h1.49l2.59-3.48c0.1,0.3,0.15,0.65,0.15,0.99c0,1.19-0.6,2.24-1.49,2.83c-0.3,0.2-0.65,0.4-0.99,0.5v3.03
		c0.35-0.05,0.65-0.15,0.99-0.25c2.59-0.85,4.47-3.28,4.47-6.12C16.68,12.86,15.98,11.32,14.89,10.18z M12.2,19.67v-1.09
		c1.49-0.75,2.49-2.24,2.49-3.98c0-1.04-0.4-2.04-0.99-2.78l-0.6,0.85l-2.59,3.48h-0.5l-2.59-3.48l-0.7-0.89
		c-0.6,0.8-0.99,1.74-0.99,2.83c0,1.74,0.99,3.28,2.49,3.98v1.09c-2.04-0.8-3.48-2.78-3.48-5.07c0-1.69,0.75-3.18,1.94-4.18
		l0.4,0.55l0.8,1.04l2.16,2.94h0.36l2.11-2.94l0.8-1.09l0.4-0.55c0.2,0.15,0.4,0.35,0.55,0.55c0.85,0.94,1.39,2.24,1.39,3.63
		C15.68,16.89,14.24,18.88,12.2,19.67z"/>
</g>
</svg>
