<?xml version="1.0" encoding="utf-8"?>
<!-- Generator: Adobe Illustrator 23.0.1, SVG Export Plug-In . SVG Version: 6.00 Build 0)  -->
<svg version="1.0" id="图层_1" xmlns="http://www.w3.org/2000/svg" xmlns:xlink="http://www.w3.org/1999/xlink" x="0px" y="0px"
	 viewBox="0 0 30 30" enable-background="new 0 0 30 30" xml:space="preserve">
<g>
	<g>
		<path fill="#FFFFFF" d="M2.05,24.69c-0.75,0-1.36-0.61-1.36-1.36V6.96c0-0.75,0.61-1.36,1.36-1.36h25.91
			c0.75,0,1.36,0.61,1.36,1.36v16.36c0,0.75-0.61,1.36-1.36,1.36H2.05z"/>
		<path fill="#666767" d="M27.95,6.28c0.37,0,0.68,0.31,0.68,0.68v16.36c0,0.37-0.31,0.68-0.68,0.68H2.05
			c-0.37,0-0.68-0.31-0.68-0.68V6.96c0-0.37,0.31-0.68,0.68-0.68H27.95 M27.95,4.92H2.05C0.92,4.92,0,5.84,0,6.96v16.36
			c0,1.12,0.92,2.05,2.05,2.05h25.91c1.12,0,2.05-0.92,2.05-2.05V6.96C30,5.84,29.08,4.92,27.95,4.92L27.95,4.92z"/>
	</g>
	<path fill="#387EC2" d="M9.61,9.17c1.67,0,3.03,1.34,3.03,2.98c0,1.65-1.36,2.98-3.03,2.98s-3.03-1.34-3.03-2.98
		S7.93,9.17,9.61,9.17z M9.61,9.17c1.67,0,3.03,1.34,3.03,2.98c0,1.65-1.36,2.98-3.03,2.98s-3.03-1.34-3.03-2.98
		S7.93,9.17,9.61,9.17z M8.47,16.13H11c2.16,0,3.92,1.72,3.92,3.85v0.25c0,0.84-1.75,0.87-3.92,0.87H8.47c-2.16,0-3.92,0-3.92-0.87
		v-0.25C4.55,17.86,6.31,16.13,8.47,16.13L8.47,16.13z"/>
</g>
</svg>
