<?xml version="1.0" encoding="utf-8"?>
<!-- Generator: Adobe Illustrator 23.0.1, SVG Export Plug-In . SVG Version: 6.00 Build 0)  -->
<svg version="1.0" id="图层_1" xmlns="http://www.w3.org/2000/svg" xmlns:xlink="http://www.w3.org/1999/xlink" x="0px" y="0px"
	 viewBox="0 0 30 30" enable-background="new 0 0 30 30" xml:space="preserve">
<g>
	<g>
		<path fill="#FFFFFF" d="M2.05,24.55c-0.75,0-1.36-0.61-1.36-1.36V6.82c0-0.75,0.61-1.36,1.36-1.36h25.91
			c0.75,0,1.36,0.61,1.36,1.36v16.36c0,0.75-0.61,1.36-1.36,1.36H2.05z"/>
		<path fill="#666767" d="M27.95,6.14c0.37,0,0.68,0.31,0.68,0.68v16.36c0,0.37-0.31,0.68-0.68,0.68H2.05
			c-0.37,0-0.68-0.31-0.68-0.68V6.82c0-0.37,0.31-0.68,0.68-0.68H27.95 M27.95,4.77H2.05C0.92,4.77,0,5.69,0,6.82v16.36
			c0,1.12,0.92,2.05,2.05,2.05h25.91c1.12,0,2.05-0.92,2.05-2.05V6.82C30,5.69,29.08,4.77,27.95,4.77L27.95,4.77z"/>
	</g>
	<path fill="#387EC2" d="M16.48,9H6.75c-1.38,0-2.5,1.16-2.5,2.59v6.76c0,1.43,1.12,2.59,2.5,2.59h9.73c1.38,0,2.5-1.16,2.5-2.59
		v-6.76C18.98,10.16,17.86,9,16.48,9z M16.01,10.29l-4.6,2.76l-4.41-2.76H16.01z M11.44,14.67l6.15-3.69
		c0.09,0.18,0.15,0.39,0.15,0.61v6.76c0,0.71-0.56,1.29-1.25,1.29H6.75c-0.69,0-1.25-0.58-1.25-1.29v-6.76
		c0-0.18,0.04-0.35,0.1-0.51l5.75,3.6"/>
</g>
</svg>
