<?xml version="1.0" encoding="utf-8"?>
<!-- Generator: Adobe Illustrator 23.0.1, SVG Export Plug-In . SVG Version: 6.00 Build 0)  -->
<svg version="1.0" id="图层_1" xmlns="http://www.w3.org/2000/svg" xmlns:xlink="http://www.w3.org/1999/xlink" x="0px" y="0px"
	 viewBox="0 0 30 30" enable-background="new 0 0 30 30" xml:space="preserve">
<g>
	<g>
		<path fill="#FFFFFF" d="M2.05,24.67c-0.75,0-1.36-0.61-1.36-1.36V6.94c0-0.75,0.61-1.36,1.36-1.36h25.91
			c0.75,0,1.36,0.61,1.36,1.36v16.36c0,0.75-0.61,1.36-1.36,1.36H2.05z"/>
		<path fill="#666767" d="M27.95,6.26c0.37,0,0.68,0.31,0.68,0.68v16.36c0,0.37-0.31,0.68-0.68,0.68H2.05
			c-0.37,0-0.68-0.31-0.68-0.68V6.94c0-0.37,0.31-0.68,0.68-0.68H27.95 M27.95,4.9H2.05C0.92,4.9,0,5.82,0,6.94v16.36
			c0,1.12,0.92,2.05,2.05,2.05h25.91c1.12,0,2.05-0.92,2.05-2.05V6.94C30,5.82,29.08,4.9,27.95,4.9L27.95,4.9z"/>
	</g>
	<path fill="#387EC2" d="M13.68,21.06l-7.53-0.15C5,20.9,4.09,19.91,4.11,18.73l0.07-3.93c0.01-0.58,0.24-1.13,0.65-1.52l4.22-4.14
		c0,0,0.63,0.69,0.64,0.71c0.1,0.12,0.15,0.27,0.14,0.43c0,0.11-0.03,0.22-0.09,0.32c-0.01,0.02-1.32,2.29-1.32,2.29l6.19,0.12
		c0.43,0.01,0.77,0.38,0.76,0.82c-0.01,0.45-0.36,0.8-0.79,0.79l-3.64-0.07l-0.01,0.54l4.93,0.1c0.43,0.01,0.77,0.38,0.76,0.82
		c-0.01,0.45-0.36,0.8-0.79,0.79l-4.93-0.1l-0.01,0.54l4.41,0.09c0.43,0.01,0.77,0.38,0.76,0.82c-0.01,0.45-0.36,0.8-0.79,0.79
		l-4.41-0.09l-0.01,0.54l2.86,0.06c0.43,0.01,0.77,0.38,0.76,0.82C14.46,20.72,14.11,21.07,13.68,21.06L13.68,21.06z"/>
</g>
</svg>
