<?xml version="1.0" encoding="utf-8"?>
<!-- Generator: Adobe Illustrator 23.0.1, SVG Export Plug-In . SVG Version: 6.00 Build 0)  -->
<svg version="1.0" id="图层_1" xmlns="http://www.w3.org/2000/svg" xmlns:xlink="http://www.w3.org/1999/xlink" x="0px" y="0px"
	 viewBox="0 0 30 30" enable-background="new 0 0 30 30" xml:space="preserve">
<g>
	<g>
		<path fill="#FFFFFF" d="M2.05,25.03c-0.75,0-1.36-0.61-1.36-1.36V7.3c0-0.75,0.61-1.36,1.36-1.36h25.91
			c0.75,0,1.36,0.61,1.36,1.36v16.36c0,0.75-0.61,1.36-1.36,1.36H2.05z"/>
		<path fill="#666767" d="M27.95,6.62c0.37,0,0.68,0.31,0.68,0.68v16.36c0,0.37-0.31,0.68-0.68,0.68H2.05
			c-0.37,0-0.68-0.31-0.68-0.68V7.3c0-0.37,0.31-0.68,0.68-0.68H27.95 M27.95,5.25H2.05C0.92,5.25,0,6.17,0,7.3v16.36
			c0,1.12,0.92,2.05,2.05,2.05h25.91c1.12,0,2.05-0.92,2.05-2.05V7.3C30,6.17,29.08,5.25,27.95,5.25L27.95,5.25z"/>
	</g>
	<path fill="#387EC2" d="M16.81,14.89c-0.06-0.29-0.32-0.57-0.6-0.63l-0.22-0.03c-0.48-0.16-0.92-0.48-1.17-0.95
		c-0.29-0.48-0.35-1.01-0.22-1.52l0,0l0.06-0.19c0.1-0.25-0.03-0.63-0.25-0.82c0,0-0.19-0.16-0.73-0.48
		c-0.54-0.32-0.79-0.41-0.79-0.41c-0.25-0.1-0.63,0-0.82,0.19L11.9,10.2c-0.38,0.35-0.86,0.57-1.39,0.57s-1.05-0.22-1.43-0.57
		l-0.13-0.13C8.76,9.85,8.38,9.79,8.13,9.88c0,0-0.25,0.1-0.79,0.41s-0.73,0.48-0.73,0.48c-0.22,0.19-0.35,0.54-0.25,0.82l0.06,0.19
		c0.13,0.51,0.06,1.05-0.22,1.52c-0.29,0.48-0.7,0.79-1.2,0.95L4.8,14.29c-0.29,0.06-0.54,0.35-0.6,0.63c0-0.03-0.03,0.22-0.03,0.86
		c0,0.63,0.03,0.89,0.03,0.89c0.06,0.29,0.32,0.57,0.6,0.63l0.19,0.03l0,0c0.48,0.16,0.92,0.48,1.2,0.95
		c0.29,0.48,0.35,1.01,0.22,1.52l0,0l-0.06,0.19c-0.1,0.25,0.03,0.63,0.25,0.82c0,0,0.19,0.16,0.73,0.48
		c0.54,0.32,0.79,0.41,0.79,0.41c0.25,0.1,0.63,0,0.82-0.19l0.13-0.16c0.38-0.35,0.86-0.57,1.43-0.57c0.54,0,1.05,0.22,1.43,0.57
		l0,0l0.13,0.16c0.19,0.22,0.57,0.29,0.82,0.19c0,0,0.25-0.1,0.79-0.41c0.54-0.32,0.73-0.48,0.73-0.48
		c0.22-0.19,0.32-0.54,0.25-0.82l-0.06-0.19c-0.13-0.51-0.06-1.01,0.22-1.49c0.29-0.48,0.7-0.79,1.2-0.95l0,0l0.19-0.03
		c0.29-0.06,0.54-0.35,0.6-0.63c0,0,0.03-0.25,0.03-0.89C16.84,15.14,16.81,14.89,16.81,14.89L16.81,14.89L16.81,14.89z
		 M10.51,18.31c-1.39,0-2.54-1.14-2.54-2.54s1.14-2.54,2.54-2.54s2.54,1.14,2.54,2.54S11.9,18.31,10.51,18.31L10.51,18.31
		L10.51,18.31z"/>
</g>
</svg>
