<?xml version="1.0" encoding="utf-8"?>
<!-- Generator: Adobe Illustrator 23.0.1, SVG Export Plug-In . SVG Version: 6.00 Build 0)  -->
<svg version="1.0" id="图层_1" xmlns="http://www.w3.org/2000/svg" xmlns:xlink="http://www.w3.org/1999/xlink" x="0px" y="0px"
	 viewBox="0 0 30 30" enable-background="new 0 0 30 30" xml:space="preserve">
<g>
	<g>
		<g>
			<path fill="#FFFFFF" d="M2.05,24.4c-0.75,0-1.36-0.61-1.36-1.36V6.67c0-0.75,0.61-1.36,1.36-1.36h25.91
				c0.75,0,1.36,0.61,1.36,1.36v16.36c0,0.75-0.61,1.36-1.36,1.36H2.05z"/>
			<path fill="#666767" d="M27.95,5.99c0.37,0,0.68,0.31,0.68,0.68v16.36c0,0.37-0.31,0.68-0.68,0.68H2.05
				c-0.37,0-0.68-0.31-0.68-0.68V6.67c0-0.37,0.31-0.68,0.68-0.68H27.95 M27.95,4.63H2.05C0.92,4.63,0,5.55,0,6.67v16.36
				c0,1.12,0.92,2.05,2.05,2.05h25.91c1.12,0,2.05-0.92,2.05-2.05V6.67C30,5.55,29.08,4.63,27.95,4.63L27.95,4.63z"/>
		</g>
	</g>
	<path fill="#387EC2" d="M4.55,20.84c-0.06-0.02-0.11-0.07-0.13-0.13c0-0.15,0-0.31-0.01-0.46c0.14-0.64,0.49-1.19,0.82-1.74
		c0.26-0.43,0.55-0.85,0.87-1.24c0.32-0.4,0.73-0.5,1.21-0.37c0.74,0.21,1.25,1.03,1.06,1.72c-0.04,0.14-0.09,0.28-0.2,0.36
		c-0.95,0.8-1.96,1.5-3.16,1.86C5,20.84,4.55,20.84,4.55,20.84z M16.33,10.36c-0.15-1.35-0.07-1.27-1.42-1.42
		c-0.48-0.04-0.63-0.03-1.32,0c-2.01,0.19-3.64,1.1-4.91,2.66c-0.15,0.2-0.37,0.35-0.62,0.42c-1.37,0.4-2.42,1.23-3.19,2.42
		c-0.12,0.19-0.19,0.37-0.04,0.56c0.15,0.2,0.36,0.21,0.58,0.13c0.37-0.14,0.76-0.23,1.16-0.26c0.32-0.03,0.55-0.08,0.82,0.29
		c0.71,0.97,1.56,1.82,2.52,2.54c0.54,0.4,0.54,0.8,0.41,1.32c-0.06,0.26-0.12,0.52-0.21,0.78c-0.07,0.23-0.09,0.44,0.13,0.61
		c0.21,0.16,0.4,0.07,0.59-0.05c1.16-0.76,1.98-1.78,2.38-3.11c0.08-0.28,0.24-0.52,0.47-0.7c1.55-1.26,2.45-2.88,2.64-4.88
		C16.34,11.07,16.35,10.64,16.33,10.36z M12.25,14.43c-0.8-0.01-1.44-0.66-1.43-1.46c0.01-0.79,0.65-1.43,1.44-1.43
		c0.79,0,1.46,0.68,1.45,1.47C13.69,13.81,13.04,14.43,12.25,14.43L12.25,14.43z"/>
</g>
</svg>
