<?xml version="1.0" standalone="no"?>
<!DOCTYPE svg PUBLIC "-//W3C//DTD SVG 1.1//EN" "http://www.w3.org/Graphics/SVG/1.1/DTD/svg11.dtd" >
<!--
2013-9-30: Created.
-->
<svg>
<metadata>
Created by iconfont
</metadata>
<defs>

<font id="iconfont" horiz-adv-x="1024" >
  <font-face
    font-family="iconfont"
    font-weight="500"
    font-stretch="normal"
    units-per-em="1024"
    ascent="896"
    descent="-128"
  />
    <missing-glyph />
    
    <glyph glyph-name="undo" unicode="&#59271;" d="M511.4 772C290.5 771.7 112 593 112 372.1c0-128 60.2-242 153.8-315.2l-37.5-48c-4.1-5.3-0.3-13 6.3-12.9l167 0.8c5.2 0 9 4.9 7.7 9.9L369.8 169c-1.6 6.5-10 8.3-14.1 3L315 119.9c-10.2 8-20 16.7-29.3 26-29.4 29.4-52.5 63.6-68.6 101.7C200.4 287 192 328.9 192 372.1s8.4 85.1 25.1 124.5c16.1 38.1 39.2 72.3 68.6 101.7 29.4 29.4 63.6 52.5 101.7 68.6C426.9 683.6 468.8 692 512 692s85.1-8.4 124.5-25.1c38.1-16.1 72.3-39.2 101.7-68.6 29.4-29.4 52.5-63.6 68.6-101.7 16.7-39.4 25.1-81.3 25.1-124.5s-8.4-85.1-25.1-124.5c-16.1-38.1-39.2-72.3-68.6-101.7-7.5-7.5-15.3-14.5-23.4-21.2-3.4-2.8-3.9-7.7-1.2-11.1l39.4-50.5c2.8-3.5 7.9-4.1 11.4-1.3C854.5 135.2 912 246.9 912 372.1c0 221.1-179.4 400.2-400.6 399.9z"  horiz-adv-x="1024" />

    
    <glyph glyph-name="save" unicode="&#59281;" d="M893.3 602.7L730.7 765.3c-7.5 7.5-16.7 13-26.7 16V784H144c-17.7 0-32-14.3-32-32v-736c0-17.7 14.3-32 32-32h736c17.7 0 32 14.3 32 32V557.5c0 17-6.7 33.2-18.7 45.2zM384 712h256v-104H384V712z m456-656H184V712h136v-136c0-17.7 14.3-32 32-32h320c17.7 0 32 14.3 32 32V690.2l136-136V56zM512 454c-79.5 0-144-64.5-144-144s64.5-144 144-144 144 64.5 144 144-64.5 144-144 144z m0-224c-44.2 0-80 35.8-80 80s35.8 80 80 80 80-35.8 80-80-35.8-80-80-80z"  horiz-adv-x="1024" />

    
    <glyph glyph-name="file-copy" unicode="&#59324;" d="M832 832H296c-4.4 0-8-3.6-8-8v-56c0-4.4 3.6-8 8-8h496v-688c0-4.4 3.6-8 8-8h56c4.4 0 8 3.6 8 8V800c0 17.7-14.3 32-32 32zM704 704H192c-17.7 0-32-14.3-32-32v-530.7c0-8.5 3.4-16.6 9.4-22.6l173.3-173.3c2.2-2.2 4.7-4 7.4-5.5v-1.9h4.2c3.5-1.3 7.2-2 11-2H704c17.7 0 32 14.3 32 32V672c0 17.7-14.3 32-32 32zM350 39.8L263.9 126H350v-86.2zM664 8H414V150c0 22.1-17.9 40-40 40H232V632h432v-624z"  horiz-adv-x="1024" />

    
    <glyph glyph-name="snippets" unicode="&#59325;" d="M832 784H724V824c0 4.4-3.6 8-8 8h-56c-4.4 0-8-3.6-8-8v-40H500V824c0 4.4-3.6 8-8 8h-56c-4.4 0-8-3.6-8-8v-40H320c-17.7 0-32-14.3-32-32v-120h-96c-17.7 0-32-14.3-32-32v-632c0-17.7 14.3-32 32-32h512c17.7 0 32 14.3 32 32v96h96c17.7 0 32 14.3 32 32V752c0 17.7-14.3 32-32 32zM664 8H232V560h218v-174c0-22.1 17.9-40 40-40h174v-338z m0 402H514V560h0.2L664 410.2v-0.2z m128-274h-56V440L544 632H360v80h68v-32c0-4.4 3.6-8 8-8h56c4.4 0 8 3.6 8 8v32h152v-32c0-4.4 3.6-8 8-8h56c4.4 0 8 3.6 8 8v32h68v-576z"  horiz-adv-x="1024" />

    
    <glyph glyph-name="delete" unicode="&#59331;" d="M360 712h-8c4.4 0 8 3.6 8 8v-8h304v8c0-4.4 3.6-8 8-8h-8v-72h72v80c0 35.3-28.7 64-64 64H352c-35.3 0-64-28.7-64-64v-80h72v72zM864 640H160c-17.7 0-32-14.3-32-32v-32c0-4.4 3.6-8 8-8h60.4l24.7-523c1.6-34.1 29.8-61 63.9-61h454c34.2 0 62.3 26.8 63.9 61l24.7 523H888c4.4 0 8 3.6 8 8v32c0 17.7-14.3 32-32 32zM731.3 56H292.7l-24.2 512h487l-24.2-512z"  horiz-adv-x="1024" />

    
    <glyph glyph-name="scissor" unicode="&#59366;" d="M567.1 384l318.5 319.3c5 5 1.5 13.7-5.6 13.7h-90.5c-2.1 0-4.2-0.8-5.6-2.3l-273.3-274-90.2 90.5c12.5 22.1 19.7 47.6 19.7 74.8 0 83.9-68.1 152-152 152s-152-68.1-152-152 68.1-152 152-152c27.7 0 53.6 7.4 75.9 20.3l90-90.3-90.1-90.3C341.6 306.6 315.7 314 288 314c-83.9 0-152-68.1-152-152s68.1-152 152-152 152 68.1 152 152c0 27.2-7.2 52.7-19.7 74.8l90.2 90.5 273.3-274c1.5-1.5 3.5-2.3 5.6-2.3H880c7.1 0 10.7 8.6 5.6 13.7L567.1 384zM288 526c-44.1 0-80 35.9-80 80s35.9 80 80 80 80-35.9 80-80-35.9-80-80-80z m0-444c-44.1 0-80 35.9-80 80s35.9 80 80 80 80-35.9 80-80-35.9-80-80-80z"  horiz-adv-x="1024" />

    
    <glyph glyph-name="rollback" unicode="&#59390;" d="M793 654H366v74c0 6.7-7.7 10.4-12.9 6.3l-142-112c-4.1-3.2-4.1-9.4 0-12.6l142-112c5.2-4.1 12.9-0.4 12.9 6.3v74h415v-470H175c-4.4 0-8-3.6-8-8v-60c0-4.4 3.6-8 8-8h618c35.3 0 64 28.7 64 64V590c0 35.3-28.7 64-64 64z"  horiz-adv-x="1024" />

    
    <glyph glyph-name="zoomout" unicode="&#59543;" d="M637 453H325c-4.4 0-8-3.6-8-8v-60c0-4.4 3.6-8 8-8h312c4.4 0 8 3.6 8 8v60c0 4.4-3.6 8-8 8zM921 29L775 175c122.1 148.9 113.6 369.5-26 509-148 148.1-388.4 148.1-537 0-148.1-148.6-148.1-389 0-537 139.5-139.6 360.1-148.1 509-26l146-146c3.2-2.8 8.3-2.8 11 0l43 43c2.8 2.7 2.8 7.8 0 11zM696 200c-118.8-118.7-311.2-118.7-430 0-118.7 118.8-118.7 311.2 0 430 118.8 118.7 311.2 118.7 430 0 118.7-118.8 118.7-311.2 0-430z"  horiz-adv-x="1024" />

    
    <glyph glyph-name="zoomin" unicode="&#59544;" d="M637 453H519V587c0 4.4-3.6 8-8 8h-60c-4.4 0-8-3.6-8-8v-134H325c-4.4 0-8-3.6-8-8v-60c0-4.4 3.6-8 8-8h118v-134c0-4.4 3.6-8 8-8h60c4.4 0 8 3.6 8 8V377h118c4.4 0 8 3.6 8 8v60c0 4.4-3.6 8-8 8zM921 29L775 175c122.1 148.9 113.6 369.5-26 509-148 148.1-388.4 148.1-537 0-148.1-148.6-148.1-389 0-537 139.5-139.6 360.1-148.1 509-26l146-146c3.2-2.8 8.3-2.8 11 0l43 43c2.8 2.7 2.8 7.8 0 11zM696 200c-118.8-118.7-311.2-118.7-430 0-118.7 118.8-118.7 311.2 0 430 118.8 118.7 311.2 118.7 430 0 118.7-118.8 118.7-311.2 0-430z"  horiz-adv-x="1024" />

    
    <glyph glyph-name="chuizhiduiqi" unicode="&#58915;" d="M831.488 349.696H547.84V454.144h155.136c17.92 0 32.768 14.848 32.768 32.768V683.52c0 17.92-14.848 32.768-32.768 32.768H547.84V815.104c0 9.216-7.68 16.896-16.896 16.896h-38.912c-9.216 0-16.896-7.68-16.896-16.896v-99.328H320.512c-17.92 0-32.768-14.848-32.768-32.768V486.4c0-17.92 14.848-32.768 32.768-32.768H476.16v-104.448H192.512c-17.92 0-32.768-14.848-32.768-32.768V83.968c0-17.92 14.848-32.768 32.768-32.768H476.16v-99.328c0-9.216 7.68-16.896 16.896-16.896h38.912c9.216 0 16.896 7.68 16.896 16.896V51.2h283.136c17.92 0 32.768 14.848 32.768 32.768V316.416c-0.512 18.432-15.36 33.28-33.28 33.28zM231.936 123.904v153.6H476.16v-153.6H231.936z m560.128 0H547.84v153.6h244.224v-153.6z"  horiz-adv-x="1024" />

    
    <glyph glyph-name="shuipingduiqi" unicode="&#58916;" d="M546.304 703.488V419.84H441.856V575.488c0 17.92-14.848 32.768-32.768 32.768H212.48c-17.92 0-32.768-14.848-32.768-32.768V419.84H80.896c-9.216 0-16.896-7.68-16.896-16.896v-38.912c0-9.216 7.68-16.896 16.896-16.896h99.328v-155.136c0-17.92 14.848-32.768 32.768-32.768H409.6c17.92 0 32.768 14.848 32.768 32.768V348.16h104.448v-283.136c0-17.92 14.848-32.768 32.768-32.768H812.032c17.92 0 32.768 14.848 32.768 32.768V348.16h99.328c9.216 0 16.896 7.68 16.896 16.896v38.912c0 9.216-7.68 16.896-16.896 16.896H844.8V703.488c0 17.92-14.848 32.768-32.768 32.768H579.584c-18.432 0-33.28-14.848-33.28-32.768z m225.792-599.552h-153.6V348.16h153.6v-244.224z m0 560.128V419.84h-153.6V664.064h153.6z"  horiz-adv-x="1024" />

    
    <glyph glyph-name="xiangtongdaxiao" unicode="&#58917;" d="M502.42048 831.82592v-72.192h-438.272v72.192zM282.94656 465.5872v-72.192h-219.136v72.192zM64 832h72.192v-438.272H64zM430.08 832h72.192v-200.704H430.08zM950.272 302.08v-366.08H512v219.136h72.192v-146.944h293.888V302.08h-128.512v72.192h200.704zM952.1664 7.84384v-72.192h-359.936v72.192zM767.488 139.776l-28.672 151.04c-1.024 5.632-7.68 7.68-11.776 3.584l-35.84-35.84-291.84 291.84 35.84 35.84c4.096 4.096 2.048 10.752-3.584 11.776l-151.04 28.672c-4.608 1.024-9.216-3.072-8.192-8.192l28.672-151.04c1.024-5.632 7.68-7.68 11.776-3.584l35.84 35.84 291.84-291.84-35.84-35.84c-4.096-4.096-2.048-10.752 3.584-11.776l151.04-28.672c5.12-1.024 9.216 3.072 8.192 8.192z"  horiz-adv-x="1024" />

    
    <glyph glyph-name="tubiao-yuanshi-" unicode="&#58919;" d="M421.44 736h181.12L512 645.44 421.44 736z m0-736h181.12L512 90.56 421.44 0zM800 149.44H224v448h576z m-512 64h448v320H288zM96 463.68v-180.8l90.56 90.56L96 463.68z m832 0v-180.8l-90.56 90.56L928 463.68z"  horiz-adv-x="1024" />

    
    <glyph glyph-name="shijidaxiao" unicode="&#58920;" d="M901.12 74.24H125.44V688.128H901.12v-613.888zM198.656 147.456h629.248V614.912H198.656v-467.456zM302.08 538.112h73.216v-314.368H302.08zM650.752 538.112h73.216v-314.368h-73.216zM482.304 501.76h73.216v-73.216H482.304zM482.304 364.544h73.216v-73.216H482.304z"  horiz-adv-x="1024" />

    
    <glyph glyph-name="liuchengbianji" unicode="&#58923;" d="M753.664 399.872c21.504 134.656-70.144 261.632-205.312 283.136-43.52 7.168-88.064 2.048-129.024-13.824-16.384-6.144-24.576-25.088-18.432-41.472 1.536-4.096 4.096-7.68 7.168-11.264l97.792-97.792c12.288-12.288 12.288-32.768 0-45.056l-31.232-31.232c-12.288-12.288-32.768-12.288-45.056 0L331.264 540.672c-12.288 12.288-32.768 12.288-45.056 0-3.072-3.072-5.632-6.656-7.168-10.752-50.176-126.976 11.776-270.848 138.752-321.024 40.96-16.384 85.504-20.992 129.024-14.336l145.92-145.92c56.832-56.832 148.992-56.832 205.824 0 56.832 56.832 56.832 148.992 0 205.824l-144.896 145.408z m99.84-306.176c-31.744-31.744-83.456-31.744-115.2 0l-170.496 170.496-17.408-4.096c-98.816-23.04-197.12 38.4-220.16 137.216-4.608 18.944-5.632 38.4-4.096 57.856L384 397.312c37.376-37.376 98.304-37.376 135.68 0l31.232 31.232c37.376 37.376 37.376 98.304 0 135.68L494.08 621.568c100.864 8.192 189.44-66.56 197.632-167.936 1.536-19.456 0-38.4-4.096-57.344l-4.096-17.408 169.984-169.984c31.744-31.744 31.744-83.456 0-115.2zM905.216 544.256c19.968 0 35.84 16.384 35.84 35.84V689.664c0 16.896-3.072 32.768-9.728 48.128-6.144 14.848-14.848 27.648-26.624 39.424-11.264 11.264-24.576 20.48-39.424 26.624-15.36 6.656-31.232 9.728-48.128 9.728H205.824c-16.896 0-32.768-3.072-48.128-9.728-14.848-6.144-28.16-15.36-39.424-26.624s-20.48-24.576-26.624-39.424c-6.656-15.36-9.728-31.232-9.728-48.128v-611.84c0-16.896 3.072-32.768 9.728-48.128 6.144-14.848 14.848-27.648 26.624-39.424 11.264-11.264 24.576-20.48 39.424-26.624 15.36-6.656 31.232-9.728 48.128-9.728h371.2c19.968 0 35.84 16.384 35.84 35.84 0 19.968-16.384 36.352-35.84 36.352H205.824c-7.168 0-13.824 1.536-19.968 4.096s-11.776 6.656-16.384 11.264-8.704 10.24-10.752 16.384c-2.56 6.144-4.096 12.8-4.096 19.968V689.664c0 7.168 1.536 13.824 4.096 19.968s6.144 11.264 11.264 16.384c4.608 4.608 9.728 8.192 16.384 10.752s13.312 4.096 19.968 4.096h611.328c7.168 0 13.824-1.536 19.968-4.096s11.776-6.656 16.384-11.264c4.608-4.608 8.704-10.24 11.264-16.384s4.096-12.8 4.096-19.968v-109.568c-0.512-18.944 15.872-35.328 35.84-35.328z"  horiz-adv-x="1024" />

    
    <glyph glyph-name="qidong" unicode="&#58899;" d="M512 384m-488.727273 0a488.727273 488.727273 0 1 1 977.454546 0 488.727273 488.727273 0 1 1-977.454546 0ZM512 849.454545A465.454545 465.454545 0 1 0 46.545455 384 465.978182 465.978182 0 0 0 512 849.454545m0 46.545455a512 512 0 1 1 512-512A512 512 0 0 1 512 896z"  horiz-adv-x="1024" />

    
    <glyph glyph-name="dingshiqidong" unicode="&#58900;" d="M512 384m-488.727273 0a488.727273 488.727273 0 1 1 977.454546 0 488.727273 488.727273 0 1 1-977.454546 0ZM512 849.454545A465.454545 465.454545 0 1 0 46.545455 384 465.978182 465.978182 0 0 0 512 849.454545m0 46.545455a512 512 0 1 1 512-512A512 512 0 0 1 512 896zM697.890909 551.738182l11.985455 11.927273a23.272727 23.272727 0 0 1 32.581818 0.698181 23.272727 23.272727 0 0 1-0.581818 32.756364l-33.629091 32.465455a23.272727 23.272727 0 0 1-32.756364-0.581819 23.272727 23.272727 0 0 1 0.581818-32.756363h0.290909l-12.858181-12.916364a250.589091 250.589091 0 0 1-304.698182-1.338182l-15.010909 14.836364a23.272727 23.272727 0 0 1 0 32.523636 23.272727 23.272727 0 0 1-32.756364 0l-33.047273-33.047272a23.272727 23.272727 0 0 1 0-32.756364 23.272727 23.272727 0 0 1 32.756364 0l0.349091 0.349091 13.847273-13.789091a251.112727 251.112727 0 1 1 373.178181 1.629091zM512 174.487273a208.465455 208.465455 0 1 0 208.407273 208.465454A208.698182 208.698182 0 0 0 512 174.487273zM567.330909 376.610909h-40.727273V449.570909a23.272727 23.272727 0 0 1-46.545454 0v-96.232727a23.272727 23.272727 0 0 1 23.272727-23.272727h64a23.272727 23.272727 0 0 1 0 46.545454z"  horiz-adv-x="1024" />

    
    <glyph glyph-name="cuowuqidong" unicode="&#58901;" d="M512 384m-488.727273 0a488.727273 488.727273 0 1 1 977.454546 0 488.727273 488.727273 0 1 1-977.454546 0ZM512 849.454545A465.454545 465.454545 0 1 0 46.545455 384 465.978182 465.978182 0 0 0 512 849.454545m0 46.545455a512 512 0 1 1 512-512A512 512 0 0 1 512 896zM391.854545 617.250909l-131.025454-362.821818 152.901818 155.636364 196.596364-259.2 152.901818 397.381818-174.778182-138.181818z"  horiz-adv-x="1024" />

    
    <glyph glyph-name="shijianziliucheng" unicode="&#58902;" d="M0 896m69.818182 0l884.363636 0q69.818182 0 69.818182-69.818182l0-884.363636q0-69.818182-69.818182-69.818182l-884.363636 0q-69.818182 0-69.818182 69.818182l0 884.363636q0 69.818182 69.818182 69.818182ZM182.516364 104.494545v64H133.818182v-96a65.687273 65.687273 0 0 1 66.909091-64h100.421818v46.545455H234.181818c-52.247273-0.407273-51.665455 30.487273-51.665454 49.454545zM350.778182 55.272727h128.989091v-46.545454H350.778182zM133.818182 352h46.894545v-128H133.818182zM180.712727 659.432727c0 19.2-0.523636 50.094545 49.861818 49.454546h64.465455v46.545454H198.341818a64.465455 64.465455 0 0 1-64.523636-64v-96h46.894545zM133.818182 544h46.894545v-128H133.818182zM350.778182 759.272727h128.989091v-46.545454H350.778182zM843.287273 544H890.181818v-128h-46.894545zM843.287273 352H890.181818v-128h-46.894545zM544.232727 55.272727h128.989091v-46.545454H544.232727zM825.658182 759.272727h-96.698182v-46.545454h64.465455c19.374545 0 50.501818 0.523636 49.861818-49.454546v-64.232727H890.181818V695.272727a64.465455 64.465455 0 0 1-64.523636 64zM544.232727 759.272727h128.989091v-46.545454H544.232727zM843.287273 104.494545c0-19.2 0.523636-50.094545-49.861818-49.454545h-64.465455v-46.545455h96.698182a64.465455 64.465455 0 0 1 64.523636 64v96h-46.894545z"  horiz-adv-x="1024" />

    
    <glyph glyph-name="tiaoyonghuodong" unicode="&#58903;" d="M0 896m69.818182 0l884.363636 0q69.818182 0 69.818182-69.818182l0-884.363636q0-69.818182-69.818182-69.818182l-884.363636 0q-69.818182 0-69.818182 69.818182l0 884.363636q0 69.818182 69.818182 69.818182ZM820.363636 715.636364a23.563636 23.563636 0 0 0 23.272728-23.272728v-616.727272a23.563636 23.563636 0 0 0-23.272728-23.272728H203.636364a23.563636 23.563636 0 0 0-23.272728 23.272728V692.363636a23.563636 23.563636 0 0 0 23.272728 23.272728h616.727272m0 46.545454H203.636364a69.818182 69.818182 0 0 1-69.818182-69.818182v-616.727272a69.818182 69.818182 0 0 1 69.818182-69.818182h616.727272a69.818182 69.818182 0 0 1 69.818182 69.818182V692.363636a69.818182 69.818182 0 0 1-69.818182 69.818182z"  horiz-adv-x="1024" />

    
    <glyph glyph-name="buchangziliucheng" unicode="&#58904;" d="M0 896m69.818182 0l884.363636 0q69.818182 0 69.818182-69.818182l0-884.363636q0-69.818182-69.818182-69.818182l-884.363636 0q-69.818182 0-69.818182 69.818182l0 884.363636q0 69.818182 69.818182 69.818182ZM820.363636 715.636364a23.563636 23.563636 0 0 0 23.272728-23.272728v-616.727272a23.563636 23.563636 0 0 0-23.272728-23.272728H203.636364a23.563636 23.563636 0 0 0-23.272728 23.272728V692.363636a23.563636 23.563636 0 0 0 23.272728 23.272728h616.727272m0 46.545454H203.636364a69.818182 69.818182 0 0 1-69.818182-69.818182v-616.727272a69.818182 69.818182 0 0 1 69.818182-69.818182h616.727272a69.818182 69.818182 0 0 1 69.818182 69.818182V692.363636a69.818182 69.818182 0 0 1-69.818182 69.818182zM674.909091 409.483636H537.483636V546.909091h-50.967272v-137.425455H349.090909v-50.967272h137.425455V221.090909h50.967272V358.516364H674.909091v50.967272z"  horiz-adv-x="1024" />

    
    <glyph glyph-name="jieshu" unicode="&#58905;" d="M512 384m-488.727273 0a488.727273 488.727273 0 1 1 977.454546 0 488.727273 488.727273 0 1 1-977.454546 0ZM512 849.454545A465.454545 465.454545 0 1 0 46.545455 384 465.978182 465.978182 0 0 0 512 849.454545m0 46.545455a512 512 0 1 1 512-512A512 512 0 0 1 512 896z"  horiz-adv-x="1024" />

    
    <glyph glyph-name="cuowujieshu" unicode="&#58906;" d="M512 384m-488.727273 0a488.727273 488.727273 0 1 1 977.454546 0 488.727273 488.727273 0 1 1-977.454546 0ZM512 849.454545A465.454545 465.454545 0 1 0 46.545455 384 465.978182 465.978182 0 0 0 512 849.454545m0 46.545455a512 512 0 1 1 512-512A512 512 0 0 1 512 896zM391.854545 617.018182l-131.083636-362.589091L413.672727 409.949091l196.596364-259.2 152.901818 397.381818-174.545454-138.181818z"  horiz-adv-x="1024" />

    
    <glyph glyph-name="jieshuzhongzhi" unicode="&#58907;" d="M512 384m-488.727273 0a488.727273 488.727273 0 1 1 977.454546 0 488.727273 488.727273 0 1 1-977.454546 0ZM512 849.454545A465.454545 465.454545 0 1 0 46.545455 384 465.978182 465.978182 0 0 0 512 849.454545m0 46.545455a512 512 0 1 1 512-512A512 512 0 0 1 512 896zM689.629091 239.534545L545.163636 384l144.465455 144.174545a23.552 23.552 0 1 1-33.163636 33.454546L512 417.163636 367.534545 561.629091a23.552 23.552 0 0 1-33.163636-33.454546L478.778182 384l-144.407273-144.465455a23.470545 23.470545 0 0 1 33.163636-33.221818L512 350.778182l144.465455-144.465455a23.493818 23.493818 0 1 1 33.221818 33.221818z"  horiz-adv-x="1024" />

    
    <glyph glyph-name="wenbenzhushi" unicode="&#58908;" d="M0 896m69.818182 0l884.363636 0q69.818182 0 69.818182-69.818182l0-884.363636q0-69.818182-69.818182-69.818182l-884.363636 0q-69.818182 0-69.818182 69.818182l0 884.363636q0 69.818182 69.818182 69.818182ZM115.258182 13.789091A21.312 21.312 0 0 1 145.454545-16.290909l44.101819 44.101818-30.08 30.021818zM271.575273 173.271273l38.272 38.248727 29.736727-29.754182-38.272-38.248727zM194.944 96.058182l38.242909 38.272 29.76-29.730909-38.248727-38.277818zM537.890909 438.4l-40.087273-40.029091 30.08-30.08 40.029091 40.087273a21.236364 21.236364 0 0 1-30.021818 30.021818zM423.400727 323.293091l38.272 38.242909 29.730909-29.754182-38.266181-38.248727zM346.786909 248.96l38.260364 38.266182 29.748363-29.748364-38.266181-38.260363zM914.734545 257.978182h-238.021818V743.738182h238.021818v46.545454h-284.567272v-578.850909h284.567272v46.545455z"  horiz-adv-x="1024" />

    
    <glyph glyph-name="shunxuliu" unicode="&#58909;" d="M0 896m69.818182 0l884.363636 0q69.818182 0 69.818182-69.818182l0-884.363636q0-69.818182-69.818182-69.818182l-884.363636 0q-69.818182 0-69.818182 69.818182l0 884.363636q0 69.818182 69.818182 69.818182ZM895.534545 754.734545l-225.105454-60.276363 64.930909-64.872727-588.218182-588.218182a23.272727 23.272727 0 1 1 32.756364-32.930909L768.290909 596.770909l66.734546-66.850909z"  horiz-adv-x="1024" />

    
    <glyph glyph-name="tuihuiliuzhuanxian" unicode="&#58910;" d="M0 896m69.818182 0l884.363636 0q69.818182 0 69.818182-69.818182l0-884.363636q0-69.818182-69.818182-69.818182l-884.363636 0q-69.818182 0-69.818182 69.818182l0 884.363636q0 69.818182 69.818182 69.818182ZM875.112727 742.167273L650.298182 681.890909l64.930909-64.872727 32.930909-32.930909 66.734545-66.734546 60.218182 224.814546zM154.88 61.672727a21.236364 21.236364 0 1 1 29.963636-29.789091l44.043637 44.043637-30.021818 30.08zM389.952 297.000727L428.218182 335.243636l29.730909-29.754181-38.272-38.248728zM312.366545 220.683636l38.248728 38.277819 29.754182-29.73091-38.248728-38.283636zM658.967273 562.036364l-40.029091-40.087273 30.021818-29.730909 40.087273 40.029091a21.294545 21.294545 0 0 1-30.08 29.789091zM545.309091 449.547636l38.272 38.248728 29.736727-29.754182-38.272-38.248727zM467.665455 373.317818l38.260363 38.260364 29.742546-29.748364-38.260364-38.260363zM234.676364 144.407273l38.248727 38.277818 29.754182-29.730909-38.248728-38.283637z"  horiz-adv-x="1024" />

    
    <glyph glyph-name="guanlian" unicode="&#58911;" d="M0 896m69.818182 0l884.363636 0q69.818182 0 69.818182-69.818182l0-884.363636q0-69.818182-69.818182-69.818182l-884.363636 0q-69.818182 0-69.818182 69.818182l0 884.363636q0 69.818182 69.818182 69.818182ZM126.021818 27.112727a21.248 21.248 0 1 1 30.08-30.021818l44.043637 44.043636-30.021819 30.08zM267.304727 168.395636l38.272 38.248728 29.730909-29.754182-38.266181-38.248727zM196.689455 97.646545l38.248727 38.272 29.754182-29.730909-38.242909-38.277818zM867.84 770.909091l-40.029091-40.029091 30.021818-30.08 40.087273 40.087273a21.248 21.248 0 1 1-30.08 30.021818zM408.465455 309.946182l38.277818 38.248727 29.730909-29.76-38.272-38.242909zM337.879273 239.202909l38.260363 38.266182 29.742546-29.748364-38.260364-38.260363zM478.970182 380.765091l38.277818 38.248727 29.730909-29.754182-38.272-38.248727zM549.573818 451.549091l38.272 38.248727 29.730909-29.754182-38.266182-38.248727zM620.177455 522.274909l38.272 38.242909 29.730909-29.754182-38.272-38.242909zM690.734545 593.093818l38.277819 38.248727 29.730909-29.754181-38.272-38.248728zM761.338182 663.819636l38.277818 38.248728 29.730909-29.754182-38.272-38.248727z"  horiz-adv-x="1024" />

    
    <glyph glyph-name="binghangwangguan" unicode="&#58912;" d="M512.027483-104.501623a46.537659 46.537659 0 0 0-32.925394 13.554093l-442.107766 442.107765a46.537659 46.537659 0 0 0 0 65.792616l442.107766 442.107765a46.537659 46.537659 0 0 0 65.850788 0l442.107765-442.107765a46.82852 46.82852 0 0 0 0-65.792616l-442.107765-442.107765a46.537659 46.537659 0 0 0-32.925394-13.554093zM512.027483 849.462224a23.26883 23.26883 0 0 0 16.462697-6.74796l442.107765-442.107766a23.55969 23.55969 0 0 0 0-32.867222l-442.107765-442.107765a23.26883 23.26883 0 0 0-32.925394 0l-442.107766 442.107765a23.55969 23.55969 0 0 0 0 32.867222l442.107766 442.107766A23.26883 23.26883 0 0 0 512.027483 849.462224m0 46.53766a69.806489 69.806489 0 0 1-49.388092-20.360226l-442.107765-442.107766a69.806489 69.806489 0 0 1 0-98.892526l442.107765-442.107765a69.806489 69.806489 0 0 1 98.892527 0l442.107765 442.107765a69.806489 69.806489 0 0 1 0 98.892526l-442.107765 442.107766A69.806489 69.806489 0 0 1 512.201999 895.999884zM407.841297 558.601852h46.53766v-349.032446h-46.53766zM569.617836 558.601852h46.53766v-349.032446h-46.53766z"  horiz-adv-x="1024" />

    
    <glyph glyph-name="duliwangguan" unicode="&#58913;" d="M511.969311-104.559795a46.188627 46.188627 0 0 0-32.867222 13.554093l-442.107766 442.107765a46.537659 46.537659 0 0 0 0 65.850788l442.107766 442.107765a46.537659 46.537659 0 0 0 65.792616 0l442.107765-442.107765a46.537659 46.537659 0 0 0 0-65.850788l-442.107765-442.107765a46.537659 46.537659 0 0 0-32.925394-13.554093zM511.969311 849.462224a23.26883 23.26883 0 0 0 16.462697-6.74796l442.107765-442.107766a23.26883 23.26883 0 0 0 0-32.925394l-442.107765-442.107765a23.26883 23.26883 0 0 0-32.867222 0l-442.107766 442.107765a23.26883 23.26883 0 0 0 0 32.925394l442.107766 442.107766A23.26883 23.26883 0 0 0 511.969311 849.462224m0 46.53766a69.806489 69.806489 0 0 1-49.32992-20.360226l-442.107765-442.107766a69.806489 69.806489 0 0 1 0-98.892526l442.107765-442.107765a69.806489 69.806489 0 0 1 98.892527 0l442.107765 442.107765a69.806489 69.806489 0 0 1 0 98.892526l-442.107765 442.107766A69.806489 69.806489 0 0 1 512.143827 895.999884zM279.339185 407.354459h465.376595v-46.537659H279.339185z"  horiz-adv-x="1024" />

    
    <glyph glyph-name="baohanwangguan" unicode="&#58914;" d="M511.969078-104.559806a46.188606 46.188606 0 0 0-32.867207 13.554087l-442.107564 442.107564a46.537638 46.537638 0 0 0 0 65.850759l442.107564 442.107564a46.537638 46.537638 0 0 0 65.792586 0l442.107564-442.107564a46.537638 46.537638 0 0 0 0-65.850759l-442.107564-442.107564a46.537638 46.537638 0 0 0-32.925379-13.554087zM511.969078 849.46178a23.268819 23.268819 0 0 0 16.462689-6.747958l442.107565-442.107564a23.617851 23.617851 0 0 0 0-32.925379l-442.107565-442.107564a23.268819 23.268819 0 0 0-32.925379 0l-442.107564 442.107564a23.617851 23.617851 0 0 0 0 32.925379l442.107564 442.107564A23.268819 23.268819 0 0 0 511.969078 849.46178m0 46.537638a69.806458 69.806458 0 0 1-49.329897-20.360216l-442.107564-442.107565a69.806458 69.806458 0 0 1 0-98.892481l442.107564-442.107564a69.806458 69.806458 0 0 1 98.892482 0l442.107564 442.107564a70.15549 70.15549 0 0 1 0 98.892481l-442.107564 442.107565A69.806458 69.806458 0 0 1 511.969078 895.999418zM501.905314 568.897993a186.150553 186.150553 0 1 0-186.150554-186.150554 186.150553 186.150553 0 0 0 186.150554 186.150554m0 46.537638a232.688192 232.688192 0 1 1 232.688191-232.688192 232.688192 232.688192 0 0 1-232.688191 232.688192z"  horiz-adv-x="1024" />

    
    <glyph glyph-name="shijianwangguan" unicode="&#58918;" d="M512.002793-104.726088a46.221989 46.221989 0 0 0-32.91513 13.545417l-442.262516 442.262515a46.763108 46.763108 0 0 0 0 65.830261l442.262516 442.268333a46.763108 46.763108 0 0 0 65.83026 0l442.285789-442.268333a46.763108 46.763108 0 0 0 0-65.830261l-442.262515-442.262515a46.210353 46.210353 0 0 0-32.938404-13.545417zM512.002793 849.451943a23.192453 23.192453 0 0 0 16.454656-6.731979l442.268333-442.262515a23.58811 23.58811 0 0 0 0-32.91513l-442.268333-442.268334a23.477559 23.477559 0 0 0-32.909312 0L53.279803 367.542319a23.58811 23.58811 0 0 0 0 32.91513l442.262516 442.262515A23.192453 23.192453 0 0 0 511.996974 849.451943m0 46.547824a69.606453 69.606453 0 0 1-49.369786-20.364673L20.364673 433.36676a70.031202 70.031202 0 0 1 0-98.739572l442.268334-442.262515a70.013746 70.013746 0 0 1 98.739572 0l442.268334 442.262515a70.031202 70.031202 0 0 1 0 98.739572L561.372579 875.635094A69.606453 69.606453 0 0 1 512.002793 895.999767zM512.002793 500.168707l30.180445-61.152204 10.828188-21.941481 24.216506-3.491087 67.494345-9.804135-48.828668-47.600969-17.525256-17.083052 4.136938-24.117591 11.526405-67.20924-60.355072 31.733979-21.662194 11.386762-21.662194-11.386762-60.355073-31.733979 11.526405 67.20924 4.136938 24.117591-17.536892 17.05396-48.828668 47.600968 67.494345 9.804136 24.216506 3.491087 10.828187 21.94148 30.180446 61.152204m0 105.174809l-71.933844-145.69469-160.816914-23.367007 116.36956-113.460322-27.469035-160.165245 143.838596 75.640215 143.838595-75.640215-27.469034 160.165245 116.36956 113.460322-160.816914 23.367007-71.922207 145.723783z"  horiz-adv-x="1024" />

    
    <glyph glyph-name="dingshibianjieshijian" unicode="&#58921;" d="M512 384m-488.727273 0a488.727273 488.727273 0 1 1 977.454546 0 488.727273 488.727273 0 1 1-977.454546 0ZM512 849.454545A465.454545 465.454545 0 1 0 46.545455 384 465.984 465.984 0 0 0 512 849.454545m0 46.545455a512 512 0 1 1 512-512A512 512 0 0 1 512 896zM697.896727 551.726545l11.985455 11.985455a23.226182 23.226182 0 0 1 32.581818 0.698182l0.151273 0.151273a23.237818 23.237818 0 0 1-0.581818 32.756363l-33.640728 32.482909a23.232 23.232 0 0 1-32.750545-0.581818l-0.151273-0.157091a23.237818 23.237818 0 0 1 0.581818-32.756363l0.290909-0.279273-12.881454-12.881455a250.501818 250.501818 0 0 1-304.686546-1.332363l-15.010909 15.010909a23.214545 23.214545 0 0 1-0.186182 32.529454l-0.15709 0.151273a23.220364 23.220364 0 0 1-32.756364 0l-33.047273-33.053091a23.220364 23.220364 0 0 1 0-32.756364l0.151273-0.15709a23.237818 23.237818 0 0 1 32.762182 0l0.360727 0.366545 13.794909-13.794909a251.182545 251.182545 0 1 1 373.189818 1.617454zM512 174.493091a208.442182 208.442182 0 1 0 208.442182 208.436364A208.674909 208.674909 0 0 0 512 174.493091zM567.272727 376.622545h-40.727272V449.553455a23.272727 23.272727 0 0 1-46.545455 0v-93.09091c0-0.535273 0.122182-1.029818 0.157091-1.553454s-0.157091-1.024-0.157091-1.559273a23.342545 23.342545 0 0 1 23.272727-23.272727h64a23.272727 23.272727 0 0 1 0 46.545454z"  horiz-adv-x="1024" />

    
    <glyph glyph-name="cuowubianjieshijian" unicode="&#58922;" d="M512 384m-488.727273 0a488.727273 488.727273 0 1 1 977.454546 0 488.727273 488.727273 0 1 1-977.454546 0ZM512 849.454545A465.454545 465.454545 0 1 0 46.545455 384 465.984 465.984 0 0 0 512 849.454545m0 46.545455a512 512 0 1 1 512-512A512 512 0 0 1 512 896zM391.854545 617.245091l-131.060363-362.827636 152.907636 155.502545 196.596364-259.165091 152.913454 397.381818-174.772363-138.216727z"  horiz-adv-x="1024" />

    
    <glyph glyph-name="xinhaobianjieshijian" unicode="&#58924;" d="M512 384m-488.727273 0a488.727273 488.727273 0 1 1 977.454546 0 488.727273 488.727273 0 1 1-977.454546 0ZM512 849.454545A465.454545 465.454545 0 1 0 46.545455 384 465.984 465.984 0 0 0 512 849.454545m0 46.545455a512 512 0 1 1 512-512A512 512 0 0 1 512 896zM512 636.462545l-251.205818-435.106909h502.411636L512 636.462545z"  horiz-adv-x="1024" />

    
    <glyph glyph-name="xiaoxibianjieshijian" unicode="&#58925;" d="M512 384m-488.727273 0a488.727273 488.727273 0 1 1 977.454546 0 488.727273 488.727273 0 1 1-977.454546 0ZM512 849.454545A465.454545 465.454545 0 1 0 46.545455 384 465.984 465.984 0 0 0 512 849.454545m0 46.545455a512 512 0 1 1 512-512A512 512 0 0 1 512 896zM678.010182 580.386909H345.989818A85.306182 85.306182 0 0 1 260.788364 495.185455v-222.376728a85.306182 85.306182 0 0 1 85.201454-85.201454h332.020364a85.300364 85.300364 0 0 1 85.195636 85.201454V495.185455a85.300364 85.300364 0 0 1-85.195636 85.201454z m-16.133818-42.600727L504.861091 417.803636 354.245818 537.786182z m58.734545-264.977455a42.653091 42.653091 0 0 0-42.600727-42.600727H345.989818a42.653091 42.653091 0 0 0-42.600727 42.600727V495.185455a42.379636 42.379636 0 0 0 3.490909 16.826181L503.202909 364.450909l1.413818 0.029091 1.262546 0.128L715.636364 515.124364a42.298182 42.298182 0 0 0 4.980363-19.938909z"  horiz-adv-x="1024" />

    
    <glyph glyph-name="buchangbianjieshijian" unicode="&#58926;" d="M512 384m-488.727273 0a488.727273 488.727273 0 1 1 977.454546 0 488.727273 488.727273 0 1 1-977.454546 0ZM512 849.454545A465.454545 465.454545 0 1 0 46.545455 384 465.984 465.984 0 0 0 512 849.454545m0 46.545455a512 512 0 1 1 512-512A512 512 0 0 1 512 896zM514.909091 387.357091V535.162182L253.090909 384l261.818182-151.162182V380.642909l256-147.805091V535.162182l-256-147.805091z"  horiz-adv-x="1024" />

    
    <glyph glyph-name="bianjieshijian" unicode="&#58927;" d="M512 384m-488.727273 0a488.727273 488.727273 0 1 1 977.454546 0 488.727273 488.727273 0 1 1-977.454546 0ZM512 849.454545A465.454545 465.454545 0 1 0 46.545455 384 465.984 465.984 0 0 0 512 849.454545m0 46.545455a512 512 0 1 1 512-512A512 512 0 0 1 512 896zM512 709.818182a325.818182 325.818182 0 1 0-325.818182-325.818182 326.190545 326.190545 0 0 0 325.818182 325.818182m0 23.272727a349.090909 349.090909 0 1 1 349.090909-349.090909 349.090909 349.090909 0 0 1-349.090909 349.090909z"  horiz-adv-x="1024" />

    
    <glyph glyph-name="dingshizhongjianshijian" unicode="&#58928;" d="M512 384m-488.727273 0a488.727273 488.727273 0 1 1 977.454546 0 488.727273 488.727273 0 1 1-977.454546 0ZM512 849.454545A465.454545 465.454545 0 1 0 46.545455 384 465.978182 465.978182 0 0 0 512 849.454545m0 46.545455a512 512 0 1 1 512-512A512 512 0 0 1 512 896zM512 709.818182a325.818182 325.818182 0 1 0-325.818182-325.818182 326.184727 326.184727 0 0 0 325.818182 325.818182m0 23.272727a349.090909 349.090909 0 1 1 349.090909-349.090909 349.090909 349.090909 0 0 1-349.090909 349.090909zM599.069091 359.173818h-122.181818V513.559273a23.272727 23.272727 0 1 1-46.545455 0v-174.545455c0-0.535273 0.128-1.035636 0.162909-1.559273s-0.162909-1.018182-0.162909-1.553454a23.342545 23.342545 0 0 1 23.272727-23.272727h145.454546a23.272727 23.272727 0 0 1 0 46.545454z"  horiz-adv-x="1024" />

    
    <glyph glyph-name="xinhaozhongjianshijian" unicode="&#58929;" d="M512 384m-488.727273 0a488.727273 488.727273 0 1 1 977.454546 0 488.727273 488.727273 0 1 1-977.454546 0ZM512 849.454545A465.454545 465.454545 0 1 0 46.545455 384 465.978182 465.978182 0 0 0 512 849.454545m0 46.545455a512 512 0 1 1 512-512A512 512 0 0 1 512 896zM512 709.818182a325.818182 325.818182 0 1 0-325.818182-325.818182 326.184727 326.184727 0 0 0 325.818182 325.818182m0 23.272727a349.090909 349.090909 0 1 1 349.090909-349.090909 349.090909 349.090909 0 0 1-349.090909 349.090909zM512 572.770909l-197.818182-342.632727h395.636364l-197.818182 342.632727z"  horiz-adv-x="1024" />

    
    <glyph glyph-name="xiaoxizhongjianshijian" unicode="&#58930;" d="M512 384m-488.727273 0a488.727273 488.727273 0 1 1 977.454546 0 488.727273 488.727273 0 1 1-977.454546 0ZM512 849.454545A465.454545 465.454545 0 1 0 46.545455 384 465.984 465.984 0 0 0 512 849.454545m0 46.545455a512 512 0 1 1 512-512A512 512 0 0 1 512 896zM512 709.818182a325.818182 325.818182 0 1 0-325.818182-325.818182 326.184727 326.184727 0 0 0 325.818182 325.818182m0 23.272727a349.090909 349.090909 0 1 1 349.090909-349.090909 349.090909 349.090909 0 0 1-349.090909 349.090909zM648.802909 532.328727H387.345455a67.165091 67.165091 0 0 1-67.089455-67.066182v-175.127272a67.165091 67.165091 0 0 1 67.089455-67.089455h261.457454a67.165091 67.165091 0 0 1 67.089455 67.089455v175.127272a67.165091 67.165091 0 0 1-67.089455 67.066182z m-12.706909-33.547636l-123.642182-100.654546-118.603636 100.654546z m46.254545-208.657455a33.588364 33.588364 0 0 0-33.547636-33.547636H387.345455a33.582545 33.582545 0 0 0-33.541819 33.547636V465.262545a33.309091 33.309091 0 0 0 2.740364 13.248L511.138909 356.130909l1.111273 0.087273 0.994909 0.034909 165.184 124.706909a33.297455 33.297455 0 0 0 3.921454-15.709091z"  horiz-adv-x="1024" />

    
    <glyph glyph-name="xinhaozhongjianshijianpaozhi" unicode="&#58931;" d="M512 384m-488.727273 0a488.727273 488.727273 0 1 1 977.454546 0 488.727273 488.727273 0 1 1-977.454546 0ZM512 849.454545A465.454545 465.454545 0 1 0 46.545455 384 465.984 465.984 0 0 0 512 849.454545m0 46.545455a512 512 0 1 1 512-512A512 512 0 0 1 512 896zM512 709.818182a325.818182 325.818182 0 1 0-325.818182-325.818182 326.190545 326.190545 0 0 0 325.818182 325.818182m0 23.272727a349.090909 349.090909 0 1 1 349.090909-349.090909 349.090909 349.090909 0 0 1-349.090909 349.090909zM512 508.770909l117.195636-202.996364H394.798545L512 508.770909m0 93.090909l-197.818182-342.632727h395.636364l-197.818182 342.632727z"  horiz-adv-x="1024" />

    
    <glyph glyph-name="buchangzhongjianshijianpaozhi" unicode="&#58932;" d="M512 384m-488.727273 0a488.727273 488.727273 0 1 1 977.454546 0 488.727273 488.727273 0 1 1-977.454546 0ZM512 849.454545A465.454545 465.454545 0 1 0 46.545455 384 465.984 465.984 0 0 0 512 849.454545m0 46.545455a512 512 0 1 1 512-512A512 512 0 0 1 512 896zM512 709.818182a325.818182 325.818182 0 1 0-325.818182-325.818182 326.184727 326.184727 0 0 0 325.818182 325.818182m0 23.272727a349.090909 349.090909 0 1 1 349.090909-349.090909 349.090909 349.090909 0 0 1-349.090909 349.090909zM514.222545 386.565818V499.490909L314.181818 384l200.040727-115.490909V381.434182L709.818182 268.509091v230.981818L514.222545 386.565818z"  horiz-adv-x="1024" />

    
    <glyph glyph-name="yonghurenwu" unicode="&#58933;" d="M29.7891 866.2109m59.578199 0l1131.985784 0q59.578199 0 59.578199-59.578199l0-714.93839q0-59.578199-59.578199-59.578199l-1131.985784 0q-59.578199 0-59.578199 59.578199l0 714.93839q0 59.578199 59.578199 59.578199ZM1221.353083 836.421801a30.191252 30.191252 0 0 0 29.789099-29.7891v-714.93839a30.183805 30.183805 0 0 0-29.789099-29.789099H89.367299a30.183805 30.183805 0 0 0-29.7891 29.789099V806.632701a30.191252 30.191252 0 0 0 29.7891 29.7891h1131.985784m0 59.578199H89.367299A89.627953 89.627953 0 0 1 0 806.632701v-714.93839a89.627953 89.627953 0 0 1 89.367299-89.367298h1131.985784a89.627953 89.627953 0 0 1 89.367298 89.367298V806.632701a89.627953 89.627953 0 0 1-89.367298 89.367299zM419.750755 710.08623a130.327311 130.327311 0 1 0-132.494468-130.327311 131.42206 131.42206 0 0 0 132.494468 130.327311z m0 0a130.327311 130.327311 0 1 0-132.494468-130.327311 131.42206 131.42206 0 0 0 132.494468 130.327311z m-49.680771-304.102023H480.498176a169.730842 169.730842 0 0 0 171.138377-168.308413v-10.843232c0-36.640592-76.632459-38.033233-171.138377-38.033233H370.069984c-94.52826 0-171.145824 0.052131-171.145824 38.033233v10.82089a169.738289 169.738289 0 0 0 171.145824 168.308413z"  horiz-adv-x="1501" />

    
    <glyph glyph-name="shenpirenwu" unicode="&#58934;" d="M29.7891 866.2109m59.578199 0l1131.985784 0q59.578199 0 59.578199-59.578199l0-714.93839q0-59.578199-59.578199-59.578199l-1131.985784 0q-59.578199 0-59.578199 59.578199l0 714.93839q0 59.578199 59.578199 59.578199ZM1221.353083 836.421801a30.191252 30.191252 0 0 0 29.789099-29.7891v-714.93839a30.183805 30.183805 0 0 0-29.789099-29.789099H89.367299a30.183805 30.183805 0 0 0-29.7891 29.789099V806.632701a30.191252 30.191252 0 0 0 29.7891 29.7891h1131.985784m0 59.578199H89.367299A89.627953 89.627953 0 0 1 0 806.632701v-714.93839a89.627953 89.627953 0 0 1 89.367299-89.367298h1131.985784a89.627953 89.627953 0 0 1 89.367298 89.367298V806.632701a89.627953 89.627953 0 0 1-89.367298 89.367299zM389.961655 717.533504a130.327311 130.327311 0 1 0-132.494467-130.32731 131.42206 131.42206 0 0 0 132.494467 130.32731z m0 0a130.327311 130.327311 0 1 0-132.494467-130.32731 131.42206 131.42206 0 0 0 132.494467 130.32731z m-49.680771-304.102023H450.709077a169.730842 169.730842 0 0 0 171.138377-168.308412v-10.843232c0-36.640592-76.632459-38.033233-171.138377-38.033233H340.280884c-94.52826 0-171.145824 0.052131-171.145824 38.033233v10.82089a169.738289 169.738289 0 0 0 171.145824 168.308413zM514.413066 144.674225a39.470557 39.470557 0 0 0-28.031543 11.640091L365.832485 276.863354a39.664186 39.664186 0 0 0 0.134051 56.040744l9.309093 9.309094a39.522688 39.522688 0 0 0 28.150699 11.617748 39.038615 39.038615 0 0 0 27.823019-11.409225l83.171166-83.171166 194.143009 194.14301a39.507793 39.507793 0 0 0 56.040744-0.134051l9.309094-9.2942a39.731212 39.731212 0 0 0 0.074472-56.115216L542.437161 156.299421a39.403531 39.403531 0 0 0-28.024095-11.625196zM736.483356 450.086968a24.829214 24.829214 0 0 0 17.597911-7.35046l9.301646-9.309093a24.665374 24.665374 0 0 0 0.074473-35.046876L531.906715 166.829868a24.687716 24.687716 0 0 0-35.002192 0l-4.714125 4.706678-115.827467 115.857255a24.628138 24.628138 0 0 0 0.134051 35.002192l9.309094 9.309094a24.851556 24.851556 0 0 0 17.620252 7.246198 24.382378 24.382378 0 0 0 17.292573-7.045122l93.694165-93.701613 204.680903 204.621325a24.508982 24.508982 0 0 0 17.389387 7.223857m0 29.7891a54.029979 54.029979 0 0 1-38.457727-15.952063l-183.612563-183.575326-72.633272 72.640719a54.677892 54.677892 0 0 1-77.034612-0.208524l-9.309093-9.309093a54.57363 54.57363 0 0 1-0.111709-77.109085l115.842361-115.842361 4.706677-4.706677a54.469369 54.469369 0 0 1 77.116532 0l231.528329 231.513434a54.633209 54.633209 0 0 1-0.067025 77.168663l-9.309094 9.309093a54.320423 54.320423 0 0 1-38.658804 16.078667z"  horiz-adv-x="1501" />

    
    <glyph glyph-name="jiaobenrenwu" unicode="&#58935;" d="M29.7891 866.2109m59.578199 0l1131.985784 0q59.578199 0 59.578199-59.578199l0-714.93839q0-59.578199-59.578199-59.578199l-1131.985784 0q-59.578199 0-59.578199 59.578199l0 714.93839q0 59.578199 59.578199 59.578199ZM1221.353083 836.421801a30.191252 30.191252 0 0 0 29.789099-29.7891v-714.93839a30.183805 30.183805 0 0 0-29.789099-29.789099H89.367299a30.183805 30.183805 0 0 0-29.7891 29.789099V806.632701a30.191252 30.191252 0 0 0 29.7891 29.7891h1131.985784m0 59.578199H89.367299A89.627953 89.627953 0 0 1 0 806.632701v-714.93839a89.627953 89.627953 0 0 1 89.367299-89.367298h1131.985784a89.627953 89.627953 0 0 1 89.367298 89.367298V806.632701a89.627953 89.627953 0 0 1-89.367298 89.367299zM493.158543 241.749453a52.130924 52.130924 0 0 1 52.130925 52.130925v353.745557h-204.80006a26.065462 26.065462 0 0 1-26.065462-26.065462v-275.549171h-55.854562v286.720083a78.196386 78.196386 0 0 0 78.196387 78.196387h286.720083a78.196386 78.196386 0 0 0 78.196386-78.196387v-26.065462h-96.814573v-338.851008a78.196386 78.196386 0 0 0-78.196387-78.196386h-268.101896a78.196386 78.196386 0 0 0-78.196386 78.196386v26.065463h260.654621a52.130924 52.130924 0 0 1 52.130924-52.130925z"  horiz-adv-x="1501" />

    
    <glyph glyph-name="fuwurenwu" unicode="&#58936;" d="M104.736542-93.98845a68.091072 68.091072 0 0 0-67.972121 67.734218l-2.778361 815.66545a68.048589 68.048589 0 0 0 67.759708 68.201527l1291.470296 4.401195a68.142051 68.142051 0 0 0 68.201526-67.742715l2.786857-815.66545a68.065582 68.065582 0 0 0-67.742715-68.210023zM1393.377498 896L1393.428477 832.649983V828.027879a34.461865 34.461865 0 0 0 33.98606-33.867109l2.77836-815.66545a34.427879 34.427879 0 0 0-33.867109-34.096515l-1291.58075-4.401195a34.461865 34.461865 0 0 0-33.98606 33.86711l-2.778361 815.665449a34.274942 34.274942 0 0 0 33.875606 34.096515l1291.470295 4.401195 0.093462 67.972121m0.050979 0h-0.356853l-1291.470296-4.401195A102.255559 102.255559 0 0 1 0.033986 789.300763l2.77836-815.665449a102.264056 102.264056 0 0 1 101.958182-101.609824h0.348357l1291.470295 4.401194a102.255559 102.255559 0 0 1 101.609824 102.306539l-2.77836 815.665449a102.255559 102.255559 0 0 1-101.958181 101.609825zM839.345237 413.822768a43.400199 43.400199 0 0 1-30.120146 31.488085l-11.045469 1.537869a101.686293 101.686293 0 0 0-58.625955 47.189645 99.043877 99.043877 0 0 0-11.317358 75.780418l3.126718 9.490608a41.403518 41.403518 0 0 1-12.744773 41.029671 311.822104 311.822104 0 0 1-36.407567 23.569333 295.678726 295.678726 0 0 1-39.559774 20.391636 43.417192 43.417192 0 0 1-41.038168-9.618055l-7.867773-7.927248a102.136608 102.136608 0 0 0-69.433522-28.667242 106.002522 106.002522 0 0 0-71.175307 28.191437l-6.3384 6.295917a39.806173 39.806173 0 0 1-41.10614 9.346167 295.364354 295.364354 0 0 1-39.415334-20.672021 310.258745 310.258745 0 0 1-36.254629-23.790243 40.434915 40.434915 0 0 1-12.464388-41.140126l3.19469-9.465118a99.052373 99.052373 0 0 0-10.841554-75.856886 104.863989 104.863989 0 0 0-59.857949-47.580485l-9.473614-1.614338a43.434185 43.434185 0 0 1-29.907733-31.692001 327.489678 327.489678 0 0 1-1.435911-42.652506 413.780285 413.780285 0 0 1 1.699303-44.181878 43.400199 43.400199 0 0 1 30.154132-31.539064l9.482111-1.546366a110.046864 110.046864 0 0 0 60.180816-47.189645 99.043877 99.043877 0 0 0 11.317358-75.780418l-3.126717-9.490608a41.386525 41.386525 0 0 1 12.744773-41.021175 310.335214 310.335214 0 0 1 36.407567-23.569332 295.678726 295.678726 0 0 1 39.559774-20.391637 43.400199 43.400199 0 0 1 41.038168 9.618055l6.295918 7.918752a103.088218 103.088218 0 0 0 70.979887 28.675739 106.070495 106.070495 0 0 0 71.175307-28.191437l6.346897-7.87627a39.78918 39.78918 0 0 1 41.10614-9.346166 295.738201 295.738201 0 0 1 39.415333 20.663524 309.460073 309.460073 0 0 1 36.246134 23.790243 43.859011 43.859011 0 0 1 12.498373 41.10614l-3.118221 9.516097a95.262927 95.262927 0 0 0 10.799071 74.276535 104.889479 104.889479 0 0 0 59.866445 47.580484l9.473615 1.614338a43.408696 43.408696 0 0 1 29.899236 31.692001 413.015599 413.015599 0 0 1 1.427415 44.232858 432.472619 432.472619 0 0 1-1.699303 45.804713zM525.594424 242.193163a126.368669 126.368669 0 1 0 125.935347 126.793495A126.742516 126.742516 0 0 0 525.594424 242.193163z"  horiz-adv-x="1498" />

    
    <glyph glyph-name="youjianrenwu" unicode="&#58937;" d="M29.7891 866.2109m59.578199 0l1131.985784 0q59.578199 0 59.578199-59.578199l0-714.93839q0-59.578199-59.578199-59.578199l-1131.985784 0q-59.578199 0-59.578199 59.578199l0 714.93839q0 59.578199 59.578199 59.578199ZM1221.353083 836.421801a30.191252 30.191252 0 0 0 29.789099-29.7891v-714.93839a30.183805 30.183805 0 0 0-29.789099-29.789099H89.367299a30.183805 30.183805 0 0 0-29.7891 29.789099V806.632701a30.191252 30.191252 0 0 0 29.7891 29.7891h1131.985784m0 59.578199H89.367299A89.627953 89.627953 0 0 1 0 806.632701v-714.93839a89.627953 89.627953 0 0 1 89.367299-89.367298h1131.985784a89.627953 89.627953 0 0 1 89.367298 89.367298V806.632701a89.627953 89.627953 0 0 1-89.367298 89.367299zM720.032326 711.322477H295.046137c-60.129297 0-109.050446-50.723389-109.050447-113.071975v-295.157845c0-62.348585 48.921149-113.079422 109.050447-113.079422h424.986189c60.136745 0 109.057894 50.730837 109.057893 113.079422V598.250502c0 62.348585-48.921149 113.071975-109.057893 113.071975z m-20.643846-56.532264l-200.979608-120.645853-192.780158 120.645853z m-199.691229-191.246019l268.496602 161.159029a57.74617 57.74617 0 0 0 6.374867-26.452721v-295.157845a55.623696 55.623696 0 0 0-54.528947-56.539711H295.046137a55.631143 55.631143 0 0 0-54.528947 56.539711V598.250502a58.044061 58.044061 0 0 0 4.468365 22.341825l251.293397-157.249209"  horiz-adv-x="1501" />

    
    <glyph glyph-name="jieshourenwu" unicode="&#58938;" d="M29.7891 866.2109m59.578199 0l1131.985784 0q59.578199 0 59.578199-59.578199l0-714.93839q0-59.578199-59.578199-59.578199l-1131.985784 0q-59.578199 0-59.578199 59.578199l0 714.93839q0 59.578199 59.578199 59.578199ZM1221.353083 836.421801a30.191252 30.191252 0 0 0 29.789099-29.7891v-714.93839a30.183805 30.183805 0 0 0-29.789099-29.789099H89.367299a30.183805 30.183805 0 0 0-29.7891 29.789099V806.632701a30.191252 30.191252 0 0 0 29.7891 29.7891h1131.985784m0 59.578199H89.367299A89.627953 89.627953 0 0 1 0 806.632701v-714.93839a89.627953 89.627953 0 0 1 89.367299-89.367298h1131.985784a89.627953 89.627953 0 0 1 89.367298 89.367298V806.632701a89.627953 89.627953 0 0 1-89.367298 89.367299zM841.273961 652.801791a97.767825 97.767825 0 0 0-18.163903-55.91414 177.453666 177.453666 0 0 0-45.212406-45.547533q-139.264041-96.68797-173.305534-120.370304c-2.48739-1.742662-7.715377-5.555667-15.758434-11.282622s-14.686026-10.537894-19.995933-14.097691-11.774142-7.544089-19.243758-12.109269a109.080235 109.080235 0 0 0-21.239628-9.957007 58.543028 58.543028 0 0 0-18.499031-3.314037h-0.826648a57.768511 57.768511 0 0 0-18.499031 3.314037 112.364484 112.364484 0 0 0-21.239628 9.957007c-7.551537 4.468365-13.933851 8.460104-19.243758 12.109269s-12.027349 8.296264-19.995933 14.105139-13.271044 9.539959-15.758434 11.282621q-33.602104 23.764254-97.060333 67.606362c-42.226049 29.282685-67.531889 46.783781-75.910073 52.838415a183.068911 183.068911 0 0 0-43.305904 42.725016 85.844738 85.844738 0 0 0-20.405533 50.440393 74.971716 74.971716 0 0 0 15.363728 48.116843 52.786284 52.786284 0 0 0 43.879344 19.243758h545.2001a57.448279 57.448279 0 0 0 41.645161-17.337256 56.599289 56.599289 0 0 0 17.575569-41.809001z m0-108.923843v-294.092885a59.190941 59.190941 0 0 0-59.146257-59.146257h-545.214995a57.284438 57.284438 0 0 0-41.816449 17.337256 56.599289 56.599289 0 0 0-17.419176 41.809001v294.092885a200.435956 200.435956 0 0 1 37.415109-32.276489q134.050948-91.087619 184.081741-127.750553c14.105139-10.374054 25.46968-18.499031 34.257465-24.225986a202.335012 202.335012 0 0 1 35.002192-17.754303 106.548162 106.548162 0 0 1 40.729146-9.040992h0.834095a108.134431 108.134431 0 0 1 40.729146 9.040992 218.130682 218.130682 0 0 1 35.002192 17.754303c8.705864 5.726954 20.159773 13.851931 34.257465 24.225986q62.974157 45.540086 184.416868 127.750553a213.639975 213.639975 0 0 1 36.871458 32.276489z"  horiz-adv-x="1501" />

    
    <glyph glyph-name="shoudongrenwu" unicode="&#58939;" d="M29.7891 866.2109m59.578199 0l1131.985784 0q59.578199 0 59.578199-59.578199l0-714.93839q0-59.578199-59.578199-59.578199l-1131.985784 0q-59.578199 0-59.578199 59.578199l0 714.93839q0 59.578199 59.578199 59.578199ZM1221.353083 836.421801a30.191252 30.191252 0 0 0 29.789099-29.7891v-714.93839a30.183805 30.183805 0 0 0-29.789099-29.789099H89.367299a30.183805 30.183805 0 0 0-29.7891 29.789099V806.632701a30.191252 30.191252 0 0 0 29.7891 29.7891h1131.985784m0 59.578199H89.367299A89.627953 89.627953 0 0 1 0 806.632701v-714.93839a89.627953 89.627953 0 0 1 89.367299-89.367298h1131.985784a89.627953 89.627953 0 0 1 89.367298 89.367298V806.632701a89.627953 89.627953 0 0 1-89.367298 89.367299zM597.576785 189.618529l-328.998263 6.359973a92.874965 92.874965 0 0 0-89.061961 95.794297l3.090619 171.615002a95.488959 95.488959 0 0 0 28.20283 66.481823l184.38708 181.058148s27.376183-30.161463 27.815571-31.114715a28.493274 28.493274 0 0 0 6.248264-18.700107 29.520998 29.520998 0 0 0-3.887478-14.038113c-0.24576-0.930909-57.641908-100.24032-57.641907-100.24032l270.231816-5.213093a35.292636 35.292636 0 0 0-1.273484-70.53314l-158.820584 3.075724-0.4096-23.518494 215.553925-4.163027a35.292636 35.292636 0 0 0-1.273484-70.525693l-215.546478 4.163027-0.424494-23.511047 192.884419-3.723637a35.292636 35.292636 0 0 0-1.273484-70.525694l-192.884419 3.723638-0.424495-23.511047 124.793985-2.412917a35.292636 35.292636 0 0 0-1.273484-70.525693z"  horiz-adv-x="1501" />

    
    <glyph glyph-name="yewuguize" unicode="&#58940;" d="M29.7891 866.2109m59.578199 0l1131.985784 0q59.578199 0 59.578199-59.578199l0-714.93839q0-59.578199-59.578199-59.578199l-1131.985784 0q-59.578199 0-59.578199 59.578199l0 714.93839q0 59.578199 59.578199 59.578199ZM1221.353083 836.421801a30.191252 30.191252 0 0 0 29.789099-29.7891v-714.93839a30.183805 30.183805 0 0 0-29.789099-29.789099H89.367299a30.183805 30.183805 0 0 0-29.7891 29.789099V806.632701a30.191252 30.191252 0 0 0 29.7891 29.7891h1131.985784m0 59.578199H89.367299A89.627953 89.627953 0 0 1 0 806.632701v-714.93839a89.627953 89.627953 0 0 1 89.367299-89.367298h1131.985784a89.627953 89.627953 0 0 1 89.367298 89.367298V806.632701a89.627953 89.627953 0 0 1-89.367298 89.367299zM757.246358 601.676249h-364.916469v-104.261849h364.916469z m-521.309242 0v-104.261849h104.261848v104.261849z m156.392773-364.91647h364.916469v208.523697h-364.916469z m-52.130925 0v208.523697h-104.261848v-208.523697z m-156.392772 469.178318h625.571091v-521.309242h-625.571091z"  horiz-adv-x="1501" />

    


  </font>
</defs>
</svg>
