<?xml version="1.0" encoding="utf-8"?>
<!-- Generator: Adobe Illustrator 23.0.1, SVG Export Plug-In . SVG Version: 6.00 Build 0)  -->
<svg version="1.0" id="图层_1" xmlns="http://www.w3.org/2000/svg" xmlns:xlink="http://www.w3.org/1999/xlink" x="0px" y="0px"
	 viewBox="0 0 30 30" enable-background="new 0 0 30 30" xml:space="preserve">
<g>
	<path fill="#BFE0CC" d="M25.76,29.92h-22c-2.2,0-4-1.8-4-4v-22c0-2.2,1.8-4,4-4h22c2.2,0,4,1.8,4,4v22
		C29.76,28.12,27.96,29.92,25.76,29.92z"/>
	<path fill="#323333" d="M23.79,5.2c0.37,0,0.68,0.31,0.68,0.68v18.07c0,0.37-0.31,0.68-0.68,0.68H5.73c-0.37,0-0.68-0.31-0.68-0.68
		V5.89c0-0.37,0.31-0.68,0.68-0.68H23.79 M23.79,3.84H5.73c-1.13,0-2.05,0.92-2.05,2.05v18.07C3.68,25.08,4.6,26,5.73,26h18.07
		c1.12,0,2.05-0.92,2.05-2.05V5.89C25.84,4.76,24.92,3.84,23.79,3.84L23.79,3.84z"/>
	<path fill="#323333" d="M20.5,15.66c-0.23,0.3-0.51,0.57-0.83,0.81c-0.51,0.43-1.21,0.65-2.11,0.67c-0.48,0-0.95-0.09-1.39-0.25
		c-0.49-0.16-1-0.33-1.53-0.51c-0.49-0.21-0.96-0.39-1.42-0.56c-0.4-0.16-0.83-0.25-1.28-0.29c-0.5,0.01-0.97,0.2-1.31,0.51
		c-0.04,0.04-0.09,0.09-0.13,0.13c-0.28,0.36-0.85,0.47-1.28,0.23c-0.43-0.24-0.54-0.73-0.26-1.1c0.02-0.02,0.04-0.05,0.06-0.07
		c0.25-0.32,0.54-0.61,0.88-0.87c0.52-0.41,1.22-0.62,2.07-0.63c0.5,0,0.99,0.08,1.46,0.22c0.5,0.16,1,0.35,1.48,0.56
		c0.49,0.21,0.97,0.39,1.44,0.56c0.38,0.17,0.81,0.27,1.24,0.29c0.52-0.01,1.02-0.21,1.35-0.56c0.04-0.04,0.09-0.08,0.13-0.12
		c0.3-0.35,0.88-0.43,1.29-0.17c0.41,0.26,0.5,0.75,0.19,1.11C20.53,15.63,20.51,15.65,20.5,15.66L20.5,15.66z"/>
</g>
</svg>
