<?xml version="1.0" encoding="utf-8"?>
<!-- Generator: Adobe Illustrator 23.0.1, SVG Export Plug-In . SVG Version: 6.00 Build 0)  -->
<svg version="1.0" id="图层_1" xmlns="http://www.w3.org/2000/svg" xmlns:xlink="http://www.w3.org/1999/xlink" x="0px" y="0px"
	 viewBox="0 0 30 30" enable-background="new 0 0 30 30" xml:space="preserve">
<g>
	<path fill="#BBD4EF" d="M26,30H4c-2.2,0-4-1.8-4-4V4c0-2.2,1.8-4,4-4h22c2.2,0,4,1.8,4,4v22C30,28.2,28.2,30,26,30z"/>
	<g>
		<path fill="#323333" d="M5.18,23.35v-1.88H3.76v2.81c0,1.03,0.88,1.88,1.96,1.88h2.94V24.8H6.7C5.17,24.82,5.18,23.91,5.18,23.35z
			"/>
		<rect x="10.11" y="24.8" fill="#323333" width="3.78" height="1.36"/>
		<rect x="3.76" y="16.1" fill="#323333" width="1.37" height="3.75"/>
		<path fill="#323333" d="M5.13,7.1c0-0.56-0.02-1.47,1.46-1.45h1.89V4.29H5.65c-1.04,0-1.89,0.84-1.89,1.88v2.81h1.37V7.1z"/>
		<rect x="3.76" y="10.48" fill="#323333" width="1.37" height="3.75"/>
		<rect x="10.11" y="4.17" fill="#323333" width="3.78" height="1.36"/>
		<rect x="24.54" y="10.48" fill="#323333" width="1.37" height="3.75"/>
		<rect x="24.54" y="16.1" fill="#323333" width="1.37" height="3.75"/>
		<rect x="15.78" y="24.8" fill="#323333" width="3.78" height="1.36"/>
		<path fill="#323333" d="M24.03,4.17h-2.83v1.36h1.89c0.57,0,1.48-0.02,1.46,1.45v1.88h1.37V6.05C25.92,5.02,25.07,4.17,24.03,4.17
			z"/>
		<rect x="15.78" y="4.17" fill="#323333" width="3.78" height="1.36"/>
		<path fill="#323333" d="M24.54,23.35c0,0.56,0.02,1.47-1.46,1.45h-1.89v1.36h2.83c1.04,0,1.89-0.84,1.89-1.88v-2.81h-1.37V23.35z"
			/>
	</g>
</g>
</svg>
