<?xml version="1.0" encoding="utf-8"?>
<!-- Generator: Adobe Illustrator 23.0.1, SVG Export Plug-In . SVG Version: 6.00 Build 0)  -->
<svg version="1.0" id="图层_1" xmlns="http://www.w3.org/2000/svg" xmlns:xlink="http://www.w3.org/1999/xlink" x="0px" y="0px"
	 viewBox="0 0 30 30" enable-background="new 0 0 30 30" xml:space="preserve">
<g>
	<path fill="#FAEBA9" d="M26,30H4c-2.2,0-4-1.8-4-4V4c0-2.2,1.8-4,4-4h22c2.2,0,4,1.8,4,4v22C30,28.2,28.2,30,26,30z"/>
	<path fill="#323333" d="M24.03,5.28c0.37,0,0.68,0.31,0.68,0.68v18.07c0,0.37-0.31,0.68-0.68,0.68H5.97
		c-0.37,0-0.68-0.31-0.68-0.68V5.97c0-0.37,0.31-0.68,0.68-0.68H24.03 M24.03,3.92H5.97c-1.13,0-2.05,0.92-2.05,2.05v18.07
		c0,1.13,0.92,2.05,2.05,2.05h18.07c1.13,0,2.05-0.92,2.05-2.05V5.97C26.08,4.84,25.16,3.92,24.03,3.92L24.03,3.92z"/>
	<rect x="10.23" y="14.23" fill="#323333" width="9.55" height="1.53"/>
</g>
</svg>
